<?xml version="1.0" encoding="UTF-8"?>
<svg xmlns="http://www.w3.org/2000/svg" xmlns:xlink="http://www.w3.org/1999/xlink" width="375pt" height="374.999991pt" viewBox="0 0 375 374.999991" version="1.2">
<defs>
<clipPath id="clip1">
  <path d="M 17 0 L 359.71875 0 L 359.71875 333 L 17 333 Z M 17 0 "/>
</clipPath>
</defs>
<g id="surface1">
<g clip-path="url(#clip1)" clip-rule="nonzero">
<path style=" stroke:none;fill-rule:nonzero;fill:rgb(100%,100%,100%);fill-opacity:1;" d="M 20.765625 203.988281 C 24.300781 220.410156 29.988281 236.105469 38.054688 250.847656 C 55.828125 283.417969 84.472656 309.664062 118.355469 324.859375 C 124.507812 327.679688 130.925781 330.027344 137.3125 332.144531 C 135.660156 325.359375 134.226562 318.335938 133.042969 311.519531 C 132.824219 309.402344 132.328125 307.300781 132.09375 305.414062 C 128.292969 303.796875 124.757812 302.144531 121.203125 300.527344 C 91.84375 285.738281 68.148438 261.402344 54.175781 232.117188 C 48.242188 219.460938 44.207031 206.105469 42.089844 192.527344 C 39.738281 177.054688 39.738281 161.375 42.339844 146.132812 C 44.957031 131.390625 49.660156 117.097656 56.53125 103.742188 C 64.597656 88.046875 75.71875 73.757812 88.742188 62.050781 C 102.480469 49.640625 118.355469 40.019531 135.644531 33.496094 C 153.652344 26.695312 172.828125 23.640625 192.03125 24.109375 C 211.191406 24.578125 230.164062 28.5625 247.441406 36.285156 C 264.246094 43.554688 279.667969 54.109375 292.707031 66.984375 C 305.511719 79.410156 315.683594 94.152344 322.988281 110.328125 C 329.421875 124.074219 333.457031 138.722656 335.105469 153.714844 C 336.976562 169.738281 336.074219 186.097656 332.492188 201.792969 C 329.40625 215.835938 324.21875 229.332031 317.179688 241.832031 C 301.742188 269.078125 277.503906 291.109375 248.734375 304 C 246.910156 304.808594 245.089844 305.554688 243.28125 306.332031 L 242.441406 311.9375 C 241.335938 319.023438 239.917969 326.011719 238.109375 332.972656 L 238.4375 332.613281 C 247.425781 329.8125 256.195312 326.308594 264.496094 322.324219 C 297.894531 305.914062 325.371094 278.730469 341.945312 245.695312 C 349.296875 230.71875 354.75 214.558594 357.351562 198.164062 C 360.433594 180.585938 360.433594 162.324219 357.601562 144.515625 C 354.984375 127.40625 349.53125 110.546875 341.726562 95.085938 C 332.507812 76.761719 319.980469 60.148438 304.792969 46.214844 C 289.109375 31.769531 270.726562 20.25 250.789062 12.496094 C 230.085938 4.429688 207.859375 0.460938 185.632812 0.695312 C 163.464844 0.957031 141.421875 5.519531 120.910156 14.035156 C 101.234375 22.242188 83.210938 34.199219 68.804688 48.457031 C 54.160156 62.75 41.839844 79.84375 33.085938 98.339844 C 25.734375 114.046875 20.765625 131.15625 18.398438 148.46875 C 16 166.980469 16.714844 185.957031 20.765625 203.988281 Z M 20.765625 203.988281 "/>
</g>
<path style=" stroke:none;fill-rule:nonzero;fill:rgb(100%,100%,100%);fill-opacity:1;" d="M 187.265625 117.039062 L 187.265625 117.363281 C 164.167969 117.363281 145.472656 135.890625 145.472656 158.605469 C 145.472656 181.320312 164.179688 199.832031 187.265625 199.832031 C 210.320312 199.832031 229.042969 181.320312 229.042969 158.386719 C 229.058594 135.53125 210.335938 117.039062 187.265625 117.039062 Z M 187.265625 117.039062 "/>
<path style=" stroke:none;fill-rule:nonzero;fill:rgb(100%,100%,100%);fill-opacity:1;" d="M 268.734375 134.472656 C 272.253906 142.445312 274.667969 150.867188 275.835938 159.539062 C 277.238281 169.378906 276.789062 179.203125 274.871094 188.574219 C 273.203125 197.027344 270.136719 205.230469 266.101562 212.722656 C 260.648438 222.792969 253.3125 231.699219 244.542969 238.71875 C 245.011719 240.589844 245.492188 242.222656 245.726562 244.105469 C 246.457031 248.949219 246.457031 253.867188 246.457031 258.789062 L 246.304688 266.105469 L 244.511719 267.753906 C 263.9375 256.265625 279.808594 238.703125 289.03125 218.308594 C 293.796875 208.238281 296.867188 197.464844 298.285156 186.457031 C 299.933594 175.199219 299.484375 163.742188 297.566406 152.488281 C 295.667969 141.714844 291.867188 131.171875 286.898438 121.335938 C 280.757812 109.363281 272.207031 98.605469 262.269531 89.464844 C 252.097656 80.328125 240.476562 73.070312 227.6875 68.167969 C 213.746094 62.765625 198.574219 60.179688 183.402344 60.429688 C 168.464844 60.898438 153.558594 64.183594 139.804688 70.269531 C 127.496094 75.65625 116.125 83.378906 106.421875 92.984375 C 96.953125 102.589844 88.914062 113.847656 83.460938 126.003906 C 78.960938 135.859375 75.875 146.632812 74.457031 157.640625 C 72.808594 169.828125 73.257812 182.222656 75.875 194.179688 C 78.027344 204.96875 81.796875 215.273438 87.261719 224.878906 C 96.484375 241.742188 110.238281 256.28125 126.828125 266.339844 L 126.828125 259.769531 C 126.828125 254.632812 126.59375 249.945312 127.527344 245.023438 L 128.960938 238.703125 C 118.992188 230.03125 110.957031 219.492188 105.503906 207.535156 C 101.96875 199.597656 99.585938 191.160156 98.398438 182.488281 C 97.230469 173.597656 97.449219 164.457031 99.101562 155.554688 C 100.769531 146.898438 103.585938 138.675781 107.636719 130.957031 C 112.371094 121.367188 119.007812 112.925781 127.078125 105.671875 C 135.128906 98.417969 144.367188 92.796875 154.320312 88.8125 C 165.441406 84.59375 177.546875 82.476562 189.386719 82.707031 C 201.222656 82.957031 213.078125 85.761719 223.964844 90.429688 C 233.917969 94.898438 242.6875 100.984375 250.507812 108.472656 C 258.078125 115.980469 264.246094 124.882812 268.734375 134.472656 Z M 268.734375 134.472656 "/>
<path style=" stroke:none;fill-rule:nonzero;fill:rgb(100%,100%,100%);fill-opacity:1;" d="M 187.265625 211.988281 C 164.382812 211.988281 145.800781 230.390625 145.800781 252.980469 C 145.800781 374.320312 187.265625 374.320312 187.265625 374.320312 C 187.265625 374.320312 228.71875 374.320312 228.71875 252.980469 C 228.71875 230.390625 210.148438 211.988281 187.265625 211.988281 Z M 187.265625 211.988281 "/>
</g>
</svg>
