<?xml version="1.0" encoding="UTF-8"?>
<svg xmlns="http://www.w3.org/2000/svg" xmlns:xlink="http://www.w3.org/1999/xlink" width="810pt" height="809.999993pt" viewBox="0 0 810 809.999993" version="1.2">
<g id="surface1">
<path style=" stroke:none;fill-rule:nonzero;fill:rgb(21.179199%,21.179199%,21.179199%);fill-opacity:1;" d="M 716.40625 574.628906 C 713.152344 573.171875 709.953125 571.601562 706.808594 569.917969 C 703.664062 568.230469 700.585938 566.433594 697.574219 564.527344 C 694.558594 562.621094 691.617188 560.605469 688.75 558.488281 C 685.878906 556.367188 683.089844 554.148438 680.382812 551.828125 C 677.671875 549.507812 675.050781 547.09375 672.515625 544.585938 C 669.980469 542.078125 667.535156 539.480469 665.1875 536.792969 C 662.839844 534.109375 660.589844 531.34375 658.441406 528.496094 C 656.292969 525.648438 654.246094 522.730469 652.308594 519.734375 C 650.371094 516.742188 648.539062 513.679688 646.820312 510.554688 C 645.101562 507.429688 643.496094 504.246094 642.007812 501.003906 C 640.519531 497.761719 639.148438 494.472656 637.894531 491.132812 C 636.640625 487.792969 635.507812 484.410156 634.5 480.988281 C 633.492188 477.566406 632.605469 474.113281 631.84375 470.628906 C 631.082031 467.140625 630.449219 463.632812 629.941406 460.101562 C 629.433594 456.570312 629.050781 453.027344 628.796875 449.46875 C 628.542969 445.910156 628.417969 442.347656 628.421875 438.777344 C 628.4375 435.578125 628.554688 432.378906 628.769531 429.183594 C 628.988281 425.992188 629.304688 422.808594 629.722656 419.632812 C 630.140625 416.460938 630.660156 413.300781 631.277344 410.160156 C 631.894531 407.019531 632.613281 403.902344 633.425781 400.804688 C 634.242188 397.710938 635.15625 394.640625 636.164062 391.605469 C 637.171875 388.566406 638.277344 385.5625 639.476562 382.59375 C 640.675781 379.625 641.96875 376.699219 643.351562 373.8125 C 644.734375 370.925781 646.210938 368.085938 647.773438 365.292969 C 649.335938 362.5 650.988281 359.757812 652.722656 357.070312 C 654.460938 354.382812 656.28125 351.75 658.183594 349.175781 C 660.089844 346.601562 662.070312 344.09375 664.132812 341.644531 C 666.195312 339.195312 668.332031 336.816406 670.546875 334.503906 C 672.757812 332.191406 675.042969 329.949219 677.394531 327.78125 C 679.75 325.613281 682.171875 323.519531 684.65625 321.503906 C 687.144531 319.488281 689.691406 317.554688 692.300781 315.703125 C 694.910156 313.847656 697.574219 312.078125 700.296875 310.394531 C 700.765625 310.074219 701.222656 309.730469 701.660156 309.367188 C 702.097656 309.003906 702.515625 308.621094 702.914062 308.21875 C 703.316406 307.8125 703.695312 307.390625 704.054688 306.949219 C 704.414062 306.507812 704.75 306.050781 705.066406 305.574219 C 705.378906 305.101562 705.667969 304.613281 705.9375 304.109375 C 706.203125 303.609375 706.445312 303.09375 706.664062 302.566406 C 706.878906 302.039062 707.070312 301.503906 707.234375 300.960938 C 707.398438 300.417969 707.535156 299.863281 707.648438 299.308594 C 707.757812 298.75 707.84375 298.1875 707.898438 297.621094 C 707.953125 297.054688 707.984375 296.484375 707.984375 295.917969 C 707.984375 295.347656 707.957031 294.78125 707.902344 294.214844 C 707.847656 293.648438 707.765625 293.085938 707.65625 292.527344 C 707.550781 291.96875 707.414062 291.417969 707.25 290.871094 C 707.085938 290.324219 706.898438 289.789062 706.683594 289.261719 C 706.46875 288.738281 706.226562 288.222656 705.960938 287.71875 C 705.695312 287.214844 705.40625 286.726562 705.09375 286.25 C 703.027344 283.25 700.875 280.316406 698.640625 277.441406 C 696.40625 274.566406 694.089844 271.757812 691.691406 269.015625 C 689.292969 266.273438 686.820312 263.605469 684.269531 261.003906 C 681.71875 258.40625 679.09375 255.882812 676.398438 253.433594 C 673.703125 250.988281 670.9375 248.621094 668.105469 246.332031 C 665.273438 244.042969 662.375 241.835938 659.417969 239.714844 C 656.457031 237.59375 653.4375 235.558594 650.363281 233.613281 C 647.285156 231.664062 644.15625 229.804688 640.972656 228.039062 C 637.789062 226.269531 634.558594 224.597656 631.277344 223.015625 C 627.996094 221.433594 624.675781 219.949219 621.308594 218.558594 C 617.945312 217.167969 614.539062 215.875 611.101562 214.683594 C 607.660156 213.488281 604.191406 212.394531 600.6875 211.398438 C 597.183594 210.40625 593.65625 209.511719 590.101562 208.722656 C 586.546875 207.933594 582.972656 207.242188 579.378906 206.660156 C 575.785156 206.074219 572.179688 205.59375 568.558594 205.214844 C 564.9375 204.839844 561.308594 204.566406 557.667969 204.398438 C 548.625 204.128906 539.59375 204.398438 530.582031 205.210938 C 521.570312 206.027344 512.636719 207.375 503.785156 209.257812 C 494.9375 211.140625 486.230469 213.542969 477.664062 216.472656 C 469.101562 219.398438 460.742188 222.824219 452.589844 226.753906 C 440.605469 232.511719 428.054688 236.484375 414.9375 238.667969 C 401.253906 236.667969 388.1875 232.648438 375.742188 226.613281 C 362.792969 220.449219 349.359375 215.632812 335.445312 212.15625 C 321.53125 208.683594 307.410156 206.621094 293.082031 205.976562 C 288.796875 206.117188 284.519531 206.398438 280.253906 206.820312 C 275.988281 207.238281 271.738281 207.796875 267.507812 208.492188 C 263.277344 209.1875 259.074219 210.019531 254.898438 210.988281 C 250.722656 211.953125 246.578125 213.054688 242.476562 214.292969 C 238.371094 215.527344 234.308594 216.894531 230.292969 218.394531 C 226.273438 219.894531 222.308594 221.519531 218.398438 223.277344 C 214.488281 225.03125 210.636719 226.910156 206.84375 228.917969 C 203.054688 230.921875 199.335938 233.046875 195.683594 235.292969 C 192.03125 237.539062 188.453125 239.898438 184.953125 242.378906 C 181.453125 244.855469 178.039062 247.441406 174.707031 250.140625 C 171.375 252.839844 168.132812 255.644531 164.980469 258.554688 C 161.832031 261.460938 158.777344 264.46875 155.824219 267.574219 C 152.867188 270.683594 150.015625 273.882812 147.265625 277.171875 C 144.515625 280.464844 141.875 283.839844 139.34375 287.300781 C 136.816406 290.765625 134.398438 294.304688 132.097656 297.921875 C 129.796875 301.542969 127.613281 305.230469 125.550781 308.992188 C 60.050781 424.621094 101.035156 599.820312 173.082031 705.429688 C 200.824219 746.285156 242.75 807.957031 301.136719 807.957031 L 304.429688 807.957031 C 314.730469 807.3125 324.867188 805.65625 334.839844 802.984375 C 344.808594 800.3125 354.414062 796.675781 363.660156 792.082031 C 373.101562 787.304688 382.960938 783.664062 393.242188 781.160156 C 403.523438 778.660156 413.953125 777.359375 424.535156 777.261719 C 434.566406 777.367188 444.453125 778.625 454.191406 781.035156 C 463.929688 783.445312 473.261719 786.941406 482.1875 791.523438 C 492.136719 796.574219 502.535156 800.414062 513.382812 803.035156 C 524.230469 805.660156 535.230469 806.996094 546.390625 807.046875 C 606.953125 805.855469 643.695312 750.980469 673.222656 707.183594 C 684.652344 690.039062 694.816406 672.171875 703.710938 653.582031 C 712.605469 634.996094 720.140625 615.871094 726.320312 596.210938 C 726.65625 595.175781 726.894531 594.113281 727.035156 593.03125 C 727.175781 591.953125 727.210938 590.867188 727.148438 589.777344 C 727.085938 588.6875 726.921875 587.613281 726.65625 586.554688 C 726.394531 585.5 726.035156 584.472656 725.578125 583.480469 C 725.125 582.492188 724.582031 581.550781 723.949219 580.660156 C 723.320312 579.769531 722.613281 578.949219 721.828125 578.191406 C 721.042969 577.433594 720.195312 576.753906 719.285156 576.15625 C 718.371094 575.554688 717.414062 575.046875 716.40625 574.628906 Z M 716.40625 574.628906 "/>
<path style=" stroke:none;fill-rule:nonzero;fill:rgb(21.179199%,21.179199%,21.179199%);fill-opacity:1;" d="M 513.152344 100.539062 C 518.855469 93.613281 523.972656 86.277344 528.503906 78.53125 C 533.03125 70.789062 536.917969 62.730469 540.164062 54.363281 C 543.40625 46 545.964844 37.425781 547.835938 28.652344 C 549.710938 19.875 550.875 11.007812 551.328125 2.042969 C 542.933594 4.058594 534.746094 6.710938 526.761719 9.996094 C 518.777344 13.277344 511.089844 17.160156 503.707031 21.632812 C 496.320312 26.105469 489.324219 31.121094 482.714844 36.679688 C 476.105469 42.238281 469.964844 48.269531 464.289062 54.777344 C 458.558594 61.503906 453.398438 68.648438 448.816406 76.203125 C 444.234375 83.761719 440.285156 91.636719 436.96875 99.828125 C 433.652344 108.023438 431.015625 116.429688 429.050781 125.046875 C 427.089844 133.667969 425.828125 142.386719 425.269531 151.207031 C 429.558594 150.59375 433.808594 149.773438 438.023438 148.753906 C 442.234375 147.734375 446.386719 146.515625 450.484375 145.101562 C 454.578125 143.683594 458.597656 142.078125 462.539062 140.28125 C 466.484375 138.480469 470.332031 136.5 474.085938 134.335938 C 477.839844 132.171875 481.484375 129.832031 485.015625 127.324219 C 488.546875 124.8125 491.953125 122.136719 495.230469 119.300781 C 498.507812 116.464844 501.644531 113.480469 504.636719 110.347656 C 507.628906 107.214844 510.46875 103.945312 513.152344 100.539062 Z M 513.152344 100.539062 "/>
</g>
</svg>
