<?xml version="1.0" encoding="UTF-8"?>
<svg xmlns="http://www.w3.org/2000/svg" xmlns:xlink="http://www.w3.org/1999/xlink" width="375pt" height="374.999991pt" viewBox="0 0 375 374.999991" version="1.2">
<defs>
<clipPath id="clip1">
  <path d="M 19.453125 0 L 355.453125 0 L 355.453125 375 L 19.453125 375 Z M 19.453125 0 "/>
</clipPath>
</defs>
<g id="surface1">
<g clip-path="url(#clip1)" clip-rule="nonzero">
<path style=" stroke:none;fill-rule:nonzero;fill:rgb(21.179199%,21.179199%,21.179199%);fill-opacity:1;" d="M 187.453125 0.0625 C 94.828125 0.0625 19.453125 75.457031 19.453125 168.109375 C 19.453125 232.835938 56.183594 289.085938 109.941406 317.121094 C 110.691406 317.511719 111.476562 317.828125 112.289062 318.066406 C 113.105469 318.304688 113.933594 318.460938 114.78125 318.535156 C 115.625 318.609375 116.46875 318.601562 117.3125 318.511719 C 118.15625 318.417969 118.984375 318.246094 119.792969 317.992188 C 120.601562 317.738281 121.378906 317.40625 122.125 317 C 122.867188 316.589844 123.566406 316.113281 124.214844 315.570312 C 124.867188 315.023438 125.457031 314.421875 125.988281 313.761719 C 126.523438 313.097656 126.984375 312.390625 127.378906 311.640625 C 127.769531 310.886719 128.085938 310.101562 128.324219 309.289062 C 128.5625 308.472656 128.71875 307.644531 128.792969 306.796875 C 128.867188 305.953125 128.859375 305.109375 128.769531 304.265625 C 128.679688 303.421875 128.503906 302.59375 128.25 301.785156 C 127.996094 300.972656 127.667969 300.195312 127.257812 299.453125 C 126.851562 298.707031 126.375 298.007812 125.832031 297.359375 C 125.289062 296.707031 124.683594 296.117188 124.023438 295.582031 C 123.363281 295.050781 122.65625 294.589844 121.902344 294.195312 C 76.410156 270.472656 45.300781 223.0625 45.300781 168.109375 C 45.300781 89.433594 108.796875 25.917969 187.453125 25.917969 C 266.109375 25.917969 329.605469 89.433594 329.605469 168.109375 C 329.605469 223.0625 298.503906 270.484375 253.027344 294.195312 C 252.253906 294.574219 251.527344 295.027344 250.84375 295.554688 C 250.160156 296.078125 249.535156 296.667969 248.972656 297.316406 C 248.40625 297.96875 247.910156 298.667969 247.484375 299.417969 C 247.058594 300.167969 246.710938 300.949219 246.445312 301.769531 C 246.175781 302.589844 245.992188 303.425781 245.890625 304.28125 C 245.789062 305.136719 245.773438 305.996094 245.84375 306.855469 C 245.914062 307.710938 246.066406 308.554688 246.308594 309.382812 C 246.546875 310.210938 246.863281 311.007812 247.261719 311.773438 C 247.660156 312.535156 248.128906 313.253906 248.671875 313.925781 C 249.210938 314.59375 249.816406 315.203125 250.480469 315.753906 C 251.140625 316.304688 251.851562 316.785156 252.613281 317.191406 C 253.371094 317.597656 254.164062 317.925781 254.988281 318.175781 C 255.8125 318.425781 256.65625 318.589844 257.511719 318.671875 C 258.371094 318.75 259.226562 318.746094 260.082031 318.65625 C 260.941406 318.566406 261.78125 318.390625 262.601562 318.132812 C 263.421875 317.875 264.210938 317.535156 264.964844 317.121094 C 318.710938 289.097656 355.453125 232.835938 355.453125 168.109375 C 355.453125 75.457031 280.078125 0.0625 187.453125 0.0625 Z M 187.453125 51.769531 C 123.375 51.769531 71.144531 104.011719 71.144531 168.109375 C 71.144531 200.882812 84.824219 230.589844 106.660156 251.703125 C 107.269531 252.292969 107.933594 252.816406 108.644531 253.277344 C 109.359375 253.734375 110.113281 254.121094 110.902344 254.433594 C 111.691406 254.742188 112.503906 254.972656 113.339844 255.125 C 114.175781 255.277344 115.015625 255.34375 115.867188 255.328125 C 116.714844 255.3125 117.554688 255.21875 118.382812 255.035156 C 119.210938 254.855469 120.015625 254.597656 120.792969 254.257812 C 121.574219 253.921875 122.3125 253.507812 123.007812 253.023438 C 123.707031 252.542969 124.351562 251.992188 124.941406 251.382812 C 125.53125 250.773438 126.054688 250.109375 126.511719 249.394531 C 126.972656 248.683594 127.359375 247.929688 127.667969 247.140625 C 127.980469 246.351562 128.210938 245.539062 128.363281 244.703125 C 128.515625 243.867188 128.582031 243.023438 128.570312 242.175781 C 128.554688 241.328125 128.457031 240.488281 128.277344 239.65625 C 128.097656 238.828125 127.839844 238.023438 127.5 237.246094 C 127.164062 236.464844 126.753906 235.726562 126.269531 235.027344 C 125.785156 234.332031 125.238281 233.6875 124.628906 233.097656 C 107.59375 216.621094 96.992188 193.714844 96.992188 168.109375 C 96.992188 117.988281 137.34375 77.625 187.453125 77.625 C 237.5625 77.625 277.914062 117.988281 277.914062 168.109375 C 277.914062 193.714844 267.3125 216.621094 250.277344 233.097656 C 249.664062 233.6875 249.117188 234.332031 248.632812 235.027344 C 248.148438 235.726562 247.734375 236.464844 247.394531 237.246094 C 247.054688 238.023438 246.796875 238.828125 246.617188 239.660156 C 246.433594 240.488281 246.335938 241.332031 246.320312 242.179688 C 246.308594 243.03125 246.375 243.871094 246.527344 244.710938 C 246.675781 245.546875 246.90625 246.359375 247.21875 247.148438 C 247.53125 247.941406 247.917969 248.695312 248.375 249.410156 C 248.835938 250.125 249.359375 250.785156 249.953125 251.398438 C 250.542969 252.007812 251.1875 252.558594 251.882812 253.042969 C 252.582031 253.527344 253.320312 253.9375 254.101562 254.277344 C 254.878906 254.613281 255.683594 254.875 256.515625 255.054688 C 257.347656 255.234375 258.1875 255.328125 259.035156 255.34375 C 259.886719 255.359375 260.726562 255.289062 261.5625 255.136719 C 262.402344 254.984375 263.214844 254.753906 264.003906 254.441406 C 264.792969 254.128906 265.546875 253.742188 266.261719 253.28125 C 266.976562 252.820312 267.636719 252.296875 268.246094 251.703125 C 290.082031 230.589844 303.761719 200.882812 303.761719 168.109375 C 303.761719 104.011719 251.53125 51.769531 187.453125 51.769531 Z M 187.453125 129.328125 C 186.183594 129.328125 184.917969 129.390625 183.652344 129.515625 C 182.390625 129.640625 181.136719 129.828125 179.890625 130.074219 C 178.644531 130.324219 177.414062 130.632812 176.199219 131 C 174.984375 131.367188 173.789062 131.796875 172.617188 132.28125 C 171.445312 132.769531 170.296875 133.308594 169.175781 133.910156 C 168.058594 134.507812 166.96875 135.160156 165.914062 135.867188 C 164.859375 136.570312 163.839844 137.328125 162.859375 138.132812 C 161.875 138.9375 160.9375 139.789062 160.039062 140.6875 C 159.140625 141.585938 158.289062 142.527344 157.484375 143.507812 C 156.679688 144.488281 155.921875 145.507812 155.21875 146.566406 C 154.511719 147.621094 153.859375 148.710938 153.261719 149.828125 C 152.664062 150.949219 152.121094 152.097656 151.636719 153.269531 C 151.148438 154.441406 150.722656 155.636719 150.351562 156.851562 C 149.984375 158.066406 149.675781 159.296875 149.429688 160.542969 C 149.179688 161.789062 148.996094 163.042969 148.871094 164.308594 C 148.746094 165.574219 148.683594 166.839844 148.683594 168.109375 C 148.683594 169.378906 148.746094 170.648438 148.871094 171.910156 C 148.996094 173.175781 149.179688 174.429688 149.429688 175.675781 C 149.675781 176.921875 149.984375 178.152344 150.351562 179.367188 C 150.722656 180.582031 151.148438 181.777344 151.636719 182.949219 C 152.121094 184.125 152.664062 185.269531 153.261719 186.390625 C 153.859375 187.511719 154.511719 188.597656 155.21875 189.65625 C 155.921875 190.710938 156.679688 191.730469 157.484375 192.710938 C 158.289062 193.695312 159.140625 194.632812 160.039062 195.53125 C 160.9375 196.429688 161.875 197.28125 162.859375 198.085938 C 163.839844 198.894531 164.859375 199.648438 165.914062 200.355469 C 166.96875 201.058594 168.058594 201.710938 169.175781 202.3125 C 170.296875 202.910156 171.445312 203.453125 172.617188 203.9375 C 173.789062 204.425781 174.984375 204.851562 176.199219 205.21875 C 177.414062 205.589844 178.644531 205.898438 179.890625 206.144531 C 181.136719 206.394531 182.390625 206.578125 183.652344 206.703125 C 184.917969 206.828125 186.183594 206.890625 187.453125 206.890625 C 188.722656 206.890625 189.988281 206.828125 191.253906 206.703125 C 192.515625 206.578125 193.769531 206.394531 195.015625 206.144531 C 196.261719 205.898438 197.492188 205.589844 198.707031 205.21875 C 199.921875 204.851562 201.117188 204.425781 202.289062 203.9375 C 203.460938 203.453125 204.609375 202.910156 205.730469 202.3125 C 206.847656 201.710938 207.9375 201.058594 208.992188 200.355469 C 210.046875 199.648438 211.066406 198.894531 212.046875 198.085938 C 213.03125 197.28125 213.96875 196.429688 214.867188 195.53125 C 215.765625 194.632812 216.617188 193.695312 217.421875 192.710938 C 218.226562 191.730469 218.984375 190.710938 219.6875 189.65625 C 220.394531 188.597656 221.046875 187.511719 221.644531 186.390625 C 222.242188 185.269531 222.785156 184.125 223.269531 182.949219 C 223.757812 181.777344 224.183594 180.582031 224.554688 179.367188 C 224.921875 178.152344 225.230469 176.921875 225.476562 175.675781 C 225.726562 174.429688 225.910156 173.175781 226.035156 171.910156 C 226.160156 170.648438 226.222656 169.378906 226.222656 168.109375 C 226.222656 166.839844 226.160156 165.574219 226.035156 164.308594 C 225.910156 163.042969 225.726562 161.789062 225.476562 160.542969 C 225.230469 159.296875 224.921875 158.066406 224.554688 156.851562 C 224.183594 155.636719 223.757812 154.441406 223.269531 153.269531 C 222.785156 152.097656 222.242188 150.949219 221.644531 149.828125 C 221.046875 148.710938 220.394531 147.621094 219.6875 146.566406 C 218.984375 145.507812 218.226562 144.488281 217.421875 143.507812 C 216.617188 142.527344 215.765625 141.585938 214.867188 140.6875 C 213.96875 139.789062 213.03125 138.9375 212.046875 138.132812 C 211.066406 137.328125 210.046875 136.570312 208.992188 135.867188 C 207.9375 135.160156 206.847656 134.507812 205.730469 133.910156 C 204.609375 133.308594 203.460938 132.769531 202.289062 132.28125 C 201.117188 131.796875 199.921875 131.367188 198.707031 131 C 197.492188 130.632812 196.261719 130.324219 195.015625 130.074219 C 193.769531 129.828125 192.515625 129.640625 191.253906 129.515625 C 189.988281 129.390625 188.722656 129.328125 187.453125 129.328125 Z M 187.453125 232.742188 C 166.039062 232.742188 148.683594 250.105469 148.683594 271.523438 C 148.683594 273.4375 148.992188 275.28125 149.265625 277.128906 L 149.113281 277.128906 L 149.464844 279.171875 C 149.480469 279.25 149.480469 279.347656 149.492188 279.425781 L 161.808594 352.164062 L 161.910156 352.136719 C 163.449219 364.960938 174.234375 374.9375 187.453125 374.9375 C 200.671875 374.9375 211.457031 364.960938 212.996094 352.136719 L 213.097656 352.164062 L 225.414062 279.425781 C 225.425781 279.347656 225.425781 279.25 225.441406 279.171875 L 225.792969 277.128906 L 225.640625 277.128906 C 225.914062 275.28125 226.222656 273.4375 226.222656 271.523438 C 226.222656 250.105469 208.867188 232.742188 187.453125 232.742188 Z M 187.453125 232.742188 "/>
</g>
</g>
</svg>
