<?xml version="1.0" encoding="UTF-8"?>
<svg xmlns="http://www.w3.org/2000/svg" xmlns:xlink="http://www.w3.org/1999/xlink" width="810pt" height="809.999993pt" viewBox="0 0 810 809.999993" version="1.2">
<defs>
<clipPath id="clip1">
  <path d="M 495 698 L 518 698 L 518 737.644531 L 495 737.644531 Z M 495 698 "/>
</clipPath>
<clipPath id="clip2">
  <path d="M 604 72.394531 L 672 72.394531 L 672 156 L 604 156 Z M 604 72.394531 "/>
</clipPath>
</defs>
<g id="surface1">
<path style=" stroke:none;fill-rule:nonzero;fill:rgb(100%,76.469421%,5.879211%);fill-opacity:1;" d="M 538.609375 244.402344 L 551.5625 227.097656 L 565.554688 243.835938 L 559.882812 220.953125 L 576.335938 214.523438 L 558.558594 211.402344 L 553.925781 188.613281 L 546.738281 212.441406 L 523.761719 212.914062 L 544.660156 220.480469 Z M 538.609375 244.402344 "/>
<path style=" stroke:none;fill-rule:nonzero;fill:rgb(100%,76.469421%,5.879211%);fill-opacity:1;" d="M 446.605469 561.757812 L 431.855469 562.703125 L 423.910156 545.492188 L 422.683594 565.824219 L 404.621094 570.550781 L 422.585938 572.535156 L 422.398438 592.679688 L 429.394531 576.414062 L 443.671875 587.003906 L 434.785156 569.984375 Z M 446.605469 561.757812 "/>
<path style=" stroke:none;fill-rule:nonzero;fill:rgb(100%,76.469421%,5.879211%);fill-opacity:1;" d="M 112.914062 281.472656 L 122.085938 266.71875 L 134.472656 279.109375 L 128.234375 261.234375 L 140.90625 254.996094 L 126.53125 253.765625 L 121.238281 235.988281 L 117.171875 255.46875 L 98.921875 257.453125 L 116.128906 261.992188 Z M 112.914062 281.472656 "/>
<path style=" stroke:none;fill-rule:nonzero;fill:rgb(100%,76.469421%,5.879211%);fill-opacity:1;" d="M 130.21875 150.976562 L 132.015625 139.15625 L 139.011719 137.265625 L 131.828125 135.277344 L 129.839844 124.496094 L 127.476562 135.46875 L 118.777344 136.886719 L 127.382812 139.34375 Z M 130.21875 150.976562 "/>
<path style=" stroke:none;fill-rule:nonzero;fill:rgb(100%,76.469421%,5.879211%);fill-opacity:1;" d="M 704.082031 158.445312 L 705.785156 146.625 L 712.875 144.734375 L 705.6875 142.84375 L 703.703125 131.96875 L 701.339844 142.9375 L 692.640625 144.355469 L 701.148438 146.816406 Z M 704.082031 158.445312 "/>
<path style=" stroke:none;fill-rule:nonzero;fill:rgb(100%,76.469421%,5.879211%);fill-opacity:1;" d="M 54.574219 639.015625 L 48.902344 665.777344 L 27.71875 669.179688 L 48.523438 675.042969 L 55.519531 703.316406 L 59.871094 674.664062 L 76.890625 670.03125 L 59.492188 665.398438 Z M 54.574219 639.015625 "/>
<path style=" stroke:none;fill-rule:nonzero;fill:rgb(100%,76.469421%,5.879211%);fill-opacity:1;" d="M 723.464844 685.253906 L 719.777344 702.5625 L 706.160156 704.734375 L 719.589844 708.613281 L 724.128906 726.863281 L 726.871094 708.328125 L 737.933594 705.398438 L 726.679688 702.371094 Z M 723.464844 685.253906 "/>
<path style=" stroke:none;fill-rule:nonzero;fill:rgb(100%,76.469421%,5.879211%);fill-opacity:1;" d="M 620.683594 235.796875 L 616.523438 263.882812 L 599.976562 267.289062 L 616.332031 273.71875 L 622.101562 303.503906 L 625.222656 273.339844 L 638.554688 268.707031 L 624.84375 263.601562 Z M 620.683594 235.796875 "/>
<path style=" stroke:none;fill-rule:nonzero;fill:rgb(100%,76.469421%,5.879211%);fill-opacity:1;" d="M 425.046875 435.136719 L 427.125 418.777344 L 435.917969 416.128906 L 426.9375 413.480469 L 424.382812 398.351562 L 421.546875 413.671875 L 410.671875 415.5625 L 421.359375 418.964844 Z M 425.046875 435.136719 "/>
<path style=" stroke:none;fill-rule:nonzero;fill:rgb(100%,76.469421%,5.879211%);fill-opacity:1;" d="M 347.699219 128.46875 L 349.875 112.109375 L 358.667969 109.460938 L 349.683594 106.816406 L 347.132812 91.777344 L 344.199219 107.003906 L 333.328125 108.894531 L 344.105469 112.300781 Z M 347.699219 128.46875 "/>
<path style=" stroke:none;fill-rule:nonzero;fill:rgb(100%,76.469421%,5.879211%);fill-opacity:1;" d="M 302.5 375.941406 L 304.296875 358.730469 L 311.863281 356.082031 L 304.015625 353.152344 L 301.746094 337.265625 L 299.285156 353.339844 L 289.832031 355.230469 L 299.191406 358.917969 Z M 302.5 375.941406 "/>
<g clip-path="url(#clip1)" clip-rule="nonzero">
<path style=" stroke:none;fill-rule:nonzero;fill:rgb(100%,76.469421%,5.879211%);fill-opacity:1;" d="M 507.6875 698.96875 L 505.230469 714.949219 L 495.867188 716.933594 L 505.136719 720.621094 L 508.445312 737.644531 L 510.242188 720.433594 L 517.898438 717.691406 L 510.050781 714.855469 Z M 507.6875 698.96875 "/>
</g>
<path style=" stroke:none;fill-rule:nonzero;fill:rgb(100%,76.469421%,5.879211%);fill-opacity:1;" d="M 22.046875 317.5 L 19.117188 332.628906 L 8.335938 334.523438 L 19.019531 337.925781 L 22.613281 353.90625 L 24.789062 337.738281 L 33.582031 335.183594 L 24.601562 332.441406 Z M 22.046875 317.5 "/>
<path style=" stroke:none;fill-rule:nonzero;fill:rgb(100%,76.469421%,5.879211%);fill-opacity:1;" d="M 54.195312 235.796875 L 55.992188 219.15625 L 65.257812 216.695312 L 55.992188 215.75 L 54.195312 201.945312 L 52.117188 215.75 L 42.28125 217.453125 L 52.304688 219.34375 Z M 54.195312 235.796875 "/>
<path style=" stroke:none;fill-rule:nonzero;fill:rgb(100%,76.469421%,5.879211%);fill-opacity:1;" d="M 773.769531 131.875 L 776.324219 108.988281 L 788.992188 105.492188 L 776.324219 104.261719 L 773.769531 85.253906 L 770.933594 104.261719 L 757.316406 106.625 L 771.121094 109.179688 Z M 773.769531 131.875 "/>
<path style=" stroke:none;fill-rule:nonzero;fill:rgb(100%,76.469421%,5.879211%);fill-opacity:1;" d="M 766.015625 260.667969 L 763.558594 277.3125 L 751.644531 279.390625 L 763.746094 281.660156 L 766.015625 301.425781 L 768.285156 281.472656 L 779.347656 278.445312 L 768.285156 277.3125 Z M 766.015625 260.667969 "/>
<path style=" stroke:none;fill-rule:nonzero;fill:rgb(100%,76.469421%,5.879211%);fill-opacity:1;" d="M 116.035156 179.25 C 117.925781 176.980469 118.398438 173.765625 115.65625 170.738281 C 113.484375 168.375 109.605469 167.902344 107.054688 169.792969 C 104.214844 171.875 103.742188 175.5625 105.257812 178.683594 C 107.621094 183.601562 113.292969 182.464844 116.035156 179.25 Z M 116.035156 179.25 "/>
<path style=" stroke:none;fill-rule:nonzero;fill:rgb(100%,76.469421%,5.879211%);fill-opacity:1;" d="M 445.753906 353.152344 C 447.644531 350.882812 448.117188 347.667969 445.375 344.640625 C 443.199219 342.277344 439.324219 341.804688 436.769531 343.695312 C 433.933594 345.773438 433.460938 349.464844 434.972656 352.582031 C 437.339844 357.59375 443.011719 356.460938 445.753906 353.152344 Z M 445.753906 353.152344 "/>
<path style=" stroke:none;fill-rule:nonzero;fill:rgb(100%,76.469421%,5.879211%);fill-opacity:1;" d="M 91.261719 395.515625 C 92.871094 393.53125 93.34375 390.691406 90.882812 388.042969 C 88.992188 385.964844 85.589844 385.585938 83.320312 387.195312 C 80.859375 389.085938 80.386719 392.300781 81.710938 394.949219 C 83.886719 399.390625 88.898438 398.445312 91.261719 395.515625 Z M 91.261719 395.515625 "/>
<path style=" stroke:none;fill-rule:nonzero;fill:rgb(100%,76.469421%,5.879211%);fill-opacity:1;" d="M 629.289062 644.878906 C 626.921875 643.554688 624.277344 644.40625 622.667969 646.390625 C 620.019531 649.605469 622.574219 653.105469 625.695312 653.957031 C 627.773438 654.523438 630.234375 653.859375 631.367188 651.023438 C 632.21875 648.847656 631.367188 646.011719 629.289062 644.878906 Z M 629.289062 644.878906 "/>
<path style=" stroke:none;fill-rule:nonzero;fill:rgb(100%,76.469421%,5.879211%);fill-opacity:1;" d="M 732.449219 630.21875 C 729.613281 632.300781 729.140625 635.988281 730.652344 639.109375 C 733.015625 644.121094 738.785156 642.984375 741.527344 639.675781 C 743.417969 637.40625 743.890625 634.191406 741.148438 631.164062 C 738.972656 628.800781 735 628.328125 732.449219 630.21875 Z M 732.449219 630.21875 "/>
<path style=" stroke:none;fill-rule:nonzero;fill:rgb(100%,76.469421%,5.879211%);fill-opacity:1;" d="M 569.621094 700.292969 C 566.785156 702.371094 566.3125 706.058594 567.824219 709.179688 C 570.191406 714.191406 575.957031 713.058594 578.699219 709.746094 C 580.589844 707.476562 581.0625 704.261719 578.320312 701.238281 C 576.050781 698.871094 572.175781 698.398438 569.621094 700.292969 Z M 569.621094 700.292969 "/>
<path style=" stroke:none;fill-rule:nonzero;fill:rgb(100%,76.469421%,5.879211%);fill-opacity:1;" d="M 411.335938 467.289062 C 413.226562 465.019531 413.699219 461.804688 410.957031 458.777344 C 408.78125 456.414062 404.90625 455.941406 402.351562 457.832031 C 399.515625 459.914062 399.042969 463.601562 400.554688 466.722656 C 402.824219 471.734375 408.5 470.597656 411.335938 467.289062 Z M 411.335938 467.289062 "/>
<path style=" stroke:none;fill-rule:nonzero;fill:rgb(100%,76.469421%,5.879211%);fill-opacity:1;" d="M 711.269531 220.761719 C 712.875 218.964844 713.347656 216.320312 711.078125 213.765625 C 709.375 211.875 706.160156 211.402344 704.082031 212.820312 C 701.71875 214.523438 701.339844 217.453125 702.472656 220.007812 C 704.363281 224.261719 709 223.410156 711.269531 220.761719 Z M 711.269531 220.761719 "/>
<path style=" stroke:none;fill-rule:nonzero;fill:rgb(100%,76.469421%,5.879211%);fill-opacity:1;" d="M 785.117188 314.285156 C 786.722656 312.488281 787.195312 309.839844 784.925781 307.289062 C 783.226562 305.398438 780.011719 304.925781 777.929688 306.34375 C 775.566406 308.042969 775.1875 310.976562 776.324219 313.527344 C 778.214844 317.785156 782.847656 316.933594 785.117188 314.285156 Z M 785.117188 314.285156 "/>
<path style=" stroke:none;fill-rule:nonzero;fill:rgb(100%,76.469421%,5.879211%);fill-opacity:1;" d="M 174.566406 98.777344 C 174.1875 96.035156 171.824219 93.574219 169.082031 93.574219 C 164.070312 93.574219 162.9375 99.15625 165.109375 102.9375 C 168.324219 108.421875 175.417969 105.019531 174.566406 98.777344 Z M 174.566406 98.777344 "/>
<path style=" stroke:none;fill-rule:nonzero;fill:rgb(100%,76.469421%,5.879211%);fill-opacity:1;" d="M 12.589844 100.855469 C 15.144531 98.019531 11.835938 94.523438 8.429688 96.222656 C 6.917969 96.980469 5.972656 98.777344 6.445312 100.382812 C 7.484375 103.222656 10.890625 102.84375 12.589844 100.855469 Z M 12.589844 100.855469 "/>
<path style=" stroke:none;fill-rule:nonzero;fill:rgb(100%,76.469421%,5.879211%);fill-opacity:1;" d="M 190.355469 118.351562 C 193.382812 114.851562 189.507812 110.691406 185.347656 112.675781 C 183.550781 113.527344 182.320312 115.796875 182.980469 117.6875 C 184.117188 121.1875 188.277344 120.714844 190.355469 118.351562 Z M 190.355469 118.351562 "/>
<path style=" stroke:none;fill-rule:nonzero;fill:rgb(100%,76.469421%,5.879211%);fill-opacity:1;" d="M 40.863281 289.414062 C 43.890625 285.917969 40.011719 281.757812 35.851562 283.742188 C 34.054688 284.59375 32.828125 286.863281 33.488281 288.753906 C 34.625 292.253906 38.785156 291.78125 40.863281 289.414062 Z M 40.863281 289.414062 "/>
<path style=" stroke:none;fill-rule:nonzero;fill:rgb(100%,76.469421%,5.879211%);fill-opacity:1;" d="M 104.785156 706.058594 C 102.988281 706.910156 101.757812 709.179688 102.421875 711.070312 C 103.554688 714.570312 107.714844 714.097656 109.796875 711.734375 C 112.914062 708.140625 108.945312 704.074219 104.785156 706.058594 Z M 104.785156 706.058594 "/>
<path style=" stroke:none;fill-rule:nonzero;fill:rgb(100%,76.469421%,5.879211%);fill-opacity:1;" d="M 556.382812 95.371094 C 558.9375 92.441406 555.628906 88.941406 552.222656 90.644531 C 550.710938 91.402344 549.671875 93.199219 550.238281 94.804688 C 551.089844 97.832031 554.589844 97.453125 556.382812 95.371094 Z M 556.382812 95.371094 "/>
<path style=" stroke:none;fill-rule:nonzero;fill:rgb(100%,76.469421%,5.879211%);fill-opacity:1;" d="M 215.226562 523.082031 C 214.183594 524.40625 214.183594 526.484375 215.320312 527.714844 C 217.496094 529.890625 220.425781 527.996094 221.089844 525.445312 C 222.128906 521.660156 217.589844 520.054688 215.226562 523.082031 Z M 215.226562 523.082031 "/>
<path style=" stroke:none;fill-rule:nonzero;fill:rgb(100%,76.469421%,5.879211%);fill-opacity:1;" d="M 423.910156 88.753906 C 426.9375 85.253906 423.058594 81.09375 418.898438 83.078125 C 417.101562 83.929688 415.875 86.199219 416.535156 88.089844 C 417.671875 91.683594 421.832031 91.210938 423.910156 88.753906 Z M 423.910156 88.753906 "/>
<path style=" stroke:none;fill-rule:nonzero;fill:rgb(100%,76.469421%,5.879211%);fill-opacity:1;" d="M 533.691406 126.484375 C 536.71875 122.984375 532.839844 118.824219 528.679688 120.808594 C 526.882812 121.660156 525.652344 123.929688 526.316406 125.820312 C 527.449219 129.414062 531.515625 128.941406 533.691406 126.484375 Z M 533.691406 126.484375 "/>
<path style=" stroke:none;fill-rule:nonzero;fill:rgb(100%,76.469421%,5.879211%);fill-opacity:1;" d="M 758.261719 205.917969 C 765.828125 206.671875 767.527344 197.5 761.097656 193.90625 C 758.261719 192.300781 754.195312 192.867188 752.210938 195.515625 C 748.523438 200.335938 753.0625 205.445312 758.261719 205.917969 Z M 758.261719 205.917969 "/>
<path style=" stroke:none;fill-rule:nonzero;fill:rgb(100%,76.469421%,5.879211%);fill-opacity:1;" d="M 592.882812 402.039062 C 600.449219 402.796875 602.148438 393.625 595.71875 390.03125 C 592.882812 388.421875 588.816406 388.992188 586.832031 391.636719 C 583.238281 396.460938 587.777344 401.472656 592.882812 402.039062 Z M 592.882812 402.039062 "/>
<path style=" stroke:none;fill-rule:nonzero;fill:rgb(100%,76.469421%,5.879211%);fill-opacity:1;" d="M 444.144531 136.128906 C 451.710938 136.886719 453.414062 127.714844 446.984375 124.121094 C 444.144531 122.511719 440.082031 123.078125 438.09375 125.726562 C 434.40625 130.550781 438.945312 135.65625 444.144531 136.128906 Z M 444.144531 136.128906 "/>
<path style=" stroke:none;fill-rule:nonzero;fill:rgb(100%,76.469421%,5.879211%);fill-opacity:1;" d="M 287.65625 185.394531 C 284.820312 183.789062 280.753906 184.355469 278.765625 187.003906 C 275.175781 191.828125 279.714844 196.933594 284.820312 197.40625 C 292.476562 198.164062 294.179688 188.988281 287.65625 185.394531 Z M 287.65625 185.394531 "/>
<path style=" stroke:none;fill-rule:nonzero;fill:rgb(100%,76.469421%,5.879211%);fill-opacity:1;" d="M 686.871094 483.648438 C 683.277344 488.46875 687.816406 493.578125 692.921875 494.050781 C 700.488281 494.804688 702.191406 485.632812 695.761719 482.039062 C 692.921875 480.433594 688.859375 481 686.871094 483.648438 Z M 686.871094 483.648438 "/>
<path style=" stroke:none;fill-rule:nonzero;fill:rgb(100%,76.469421%,5.879211%);fill-opacity:1;" d="M 8.527344 498.871094 C 6.632812 497.832031 3.988281 498.210938 2.757812 499.914062 C 0.394531 503.03125 3.324219 506.34375 6.730469 506.722656 C 11.550781 507.195312 12.6875 501.238281 8.527344 498.871094 Z M 8.527344 498.871094 "/>
<path style=" stroke:none;fill-rule:nonzero;fill:rgb(100%,76.469421%,5.879211%);fill-opacity:1;" d="M 19.210938 216.980469 C 25.453125 217.640625 26.871094 210.078125 21.480469 207.050781 C 19.117188 205.726562 15.710938 206.199219 14.105469 208.375 C 11.171875 212.347656 14.957031 216.601562 19.210938 216.980469 Z M 19.210938 216.980469 "/>
<path style=" stroke:none;fill-rule:nonzero;fill:rgb(100%,76.469421%,5.879211%);fill-opacity:1;" d="M 19.683594 619.914062 C 13.726562 619.25 11.644531 625.777344 13.820312 630.503906 C 17.035156 637.40625 25.828125 634.191406 25.546875 626.816406 C 25.453125 623.507812 22.992188 620.292969 19.683594 619.914062 Z M 19.683594 619.914062 "/>
<path style=" stroke:none;fill-rule:nonzero;fill:rgb(100%,76.469421%,5.879211%);fill-opacity:1;" d="M 430.71875 723.082031 C 428.828125 727.902344 434.5 730.742188 438 727.148438 C 439.609375 725.539062 439.984375 722.796875 438.660156 721.09375 C 436.203125 717.785156 432.042969 719.769531 430.71875 723.082031 Z M 430.71875 723.082031 "/>
<path style=" stroke:none;fill-rule:nonzero;fill:rgb(100%,76.469421%,5.879211%);fill-opacity:1;" d="M 760.910156 704.359375 C 759.019531 709.179688 764.785156 711.921875 768.285156 708.328125 C 769.796875 706.722656 770.175781 703.980469 768.851562 702.183594 C 766.300781 698.96875 762.234375 701.046875 760.910156 704.359375 Z M 760.910156 704.359375 "/>
<path style=" stroke:none;fill-rule:nonzero;fill:rgb(100%,76.469421%,5.879211%);fill-opacity:1;" d="M 458.613281 517.691406 C 456.722656 522.511719 462.394531 525.351562 465.894531 521.757812 C 467.5 520.148438 467.878906 517.40625 466.554688 515.703125 C 464.097656 512.394531 459.9375 514.378906 458.613281 517.691406 Z M 458.613281 517.691406 "/>
<path style=" stroke:none;fill-rule:nonzero;fill:rgb(100%,76.469421%,5.879211%);fill-opacity:1;" d="M 322.640625 719.109375 C 319.804688 717.5 315.738281 718.070312 313.753906 720.71875 C 310.160156 725.539062 314.699219 730.644531 319.804688 731.117188 C 327.371094 731.875 329.070312 722.703125 322.640625 719.109375 Z M 322.640625 719.109375 "/>
<path style=" stroke:none;fill-rule:nonzero;fill:rgb(100%,76.469421%,5.879211%);fill-opacity:1;" d="M 455.492188 652.726562 C 452.65625 651.117188 448.589844 651.6875 446.605469 654.332031 C 443.011719 659.15625 447.550781 664.261719 452.65625 664.734375 C 460.222656 665.492188 462.015625 656.320312 455.492188 652.726562 Z M 455.492188 652.726562 "/>
<path style=" stroke:none;fill-rule:nonzero;fill:rgb(100%,76.469421%,5.879211%);fill-opacity:1;" d="M 46.160156 720.527344 C 43.324219 718.921875 39.257812 719.488281 37.269531 722.136719 C 33.675781 726.957031 38.214844 732.066406 43.324219 732.539062 C 50.980469 733.292969 52.683594 724.121094 46.160156 720.527344 Z M 46.160156 720.527344 "/>
<path style=" stroke:none;fill-rule:nonzero;fill:rgb(100%,76.469421%,5.879211%);fill-opacity:1;" d="M 112.066406 452.0625 C 109.132812 450.457031 105.066406 451.023438 103.175781 453.671875 C 99.582031 458.492188 104.121094 463.601562 109.324219 464.167969 C 116.886719 464.828125 118.589844 455.65625 112.066406 452.0625 Z M 112.066406 452.0625 "/>
<path style=" stroke:none;fill-rule:nonzero;fill:rgb(100%,76.469421%,5.879211%);fill-opacity:1;" d="M 750.507812 151.828125 C 752.871094 149.179688 749.847656 145.964844 746.632812 147.476562 C 745.214844 148.136719 744.363281 149.839844 744.835938 151.355469 C 745.6875 154.097656 748.902344 153.71875 750.507812 151.828125 Z M 750.507812 151.828125 "/>
<path style=" stroke:none;fill-rule:nonzero;fill:rgb(100%,76.469421%,5.879211%);fill-opacity:1;" d="M 785.871094 725.445312 C 784.453125 726.105469 783.601562 727.808594 784.074219 729.320312 C 784.925781 732.066406 788.140625 731.6875 789.75 729.796875 C 792.113281 727.148438 789.085938 723.933594 785.871094 725.445312 Z M 785.871094 725.445312 "/>
<path style=" stroke:none;fill-rule:nonzero;fill:rgb(100%,76.469421%,5.879211%);fill-opacity:1;" d="M 133.8125 728.660156 C 132.394531 729.320312 131.542969 731.023438 132.015625 732.539062 C 132.867188 735.28125 136.082031 734.902344 137.691406 733.011719 C 140.054688 730.363281 137.027344 727.148438 133.8125 728.660156 Z M 133.8125 728.660156 "/>
<path style=" stroke:none;fill-rule:nonzero;fill:rgb(100%,76.469421%,5.879211%);fill-opacity:1;" d="M 4.933594 704.453125 C 3.515625 705.113281 2.664062 706.816406 3.136719 708.328125 C 3.988281 711.070312 7.203125 710.691406 8.808594 708.800781 C 11.171875 706.152344 8.148438 702.9375 4.933594 704.453125 Z M 4.933594 704.453125 "/>
<path style=" stroke:none;fill-rule:nonzero;fill:rgb(100%,76.469421%,5.879211%);fill-opacity:1;" d="M 681.578125 396.933594 C 682.429688 399.675781 685.644531 399.296875 687.25 397.40625 C 689.613281 394.757812 686.589844 391.542969 683.375 393.054688 C 682.050781 393.71875 681.105469 395.421875 681.578125 396.933594 Z M 681.578125 396.933594 "/>
<path style=" stroke:none;fill-rule:nonzero;fill:rgb(100%,76.469421%,5.879211%);fill-opacity:1;" d="M 781.710938 474.757812 C 780.292969 475.421875 779.441406 477.121094 779.914062 478.636719 C 780.765625 481.378906 783.980469 481 785.589844 479.109375 C 787.859375 476.460938 784.832031 473.246094 781.710938 474.757812 Z M 781.710938 474.757812 "/>
<path style=" stroke:none;fill-rule:nonzero;fill:rgb(100%,76.469421%,5.879211%);fill-opacity:1;" d="M 469.675781 418.964844 C 472.324219 416.601562 469.675781 413.007812 466.367188 414.238281 C 464.949219 414.710938 463.8125 416.320312 464.097656 417.832031 C 464.664062 420.574219 467.878906 420.667969 469.675781 418.964844 Z M 469.675781 418.964844 "/>
<path style=" stroke:none;fill-rule:nonzero;fill:rgb(100%,76.469421%,5.879211%);fill-opacity:1;" d="M 784.359375 235.796875 C 786.914062 233.246094 783.980469 229.9375 780.765625 231.257812 C 779.347656 231.828125 778.308594 233.527344 778.6875 235.042969 C 779.441406 237.691406 782.65625 237.59375 784.359375 235.796875 Z M 784.359375 235.796875 "/>
<path style=" stroke:none;fill-rule:nonzero;fill:rgb(100%,76.469421%,5.879211%);fill-opacity:1;" d="M 556.101562 352.300781 C 554.683594 352.960938 553.832031 354.664062 554.304688 356.175781 C 555.15625 358.917969 558.371094 358.542969 559.976562 356.648438 C 562.339844 353.90625 559.222656 350.785156 556.101562 352.300781 Z M 556.101562 352.300781 "/>
<path style=" stroke:none;fill-rule:nonzero;fill:rgb(100%,76.469421%,5.879211%);fill-opacity:1;" d="M 485.183594 267.191406 C 483.765625 267.855469 482.914062 269.558594 483.386719 271.070312 C 484.238281 273.8125 487.453125 273.433594 489.058594 271.542969 C 491.425781 268.894531 488.304688 265.679688 485.183594 267.191406 Z M 485.183594 267.191406 "/>
<path style=" stroke:none;fill-rule:nonzero;fill:rgb(100%,76.469421%,5.879211%);fill-opacity:1;" d="M 684.128906 272.582031 C 686.492188 269.9375 683.46875 266.71875 680.253906 268.234375 C 678.835938 268.894531 677.984375 270.597656 678.457031 272.109375 C 679.402344 274.757812 682.523438 274.476562 684.128906 272.582031 Z M 684.128906 272.582031 "/>
<path style=" stroke:none;fill-rule:nonzero;fill:rgb(100%,76.469421%,5.879211%);fill-opacity:1;" d="M 260.613281 439.960938 C 259.574219 436.554688 255.222656 437.40625 254.84375 440.90625 C 254.65625 442.417969 255.601562 444.121094 257.113281 444.5 C 259.949219 445.160156 261.367188 442.324219 260.613281 439.960938 Z M 260.613281 439.960938 "/>
<path style=" stroke:none;fill-rule:nonzero;fill:rgb(100%,76.469421%,5.879211%);fill-opacity:1;" d="M 214.375 361.472656 C 216.738281 358.824219 213.710938 355.609375 210.496094 357.121094 C 209.078125 357.785156 208.226562 359.488281 208.703125 361 C 209.648438 363.648438 212.765625 363.269531 214.375 361.472656 Z M 214.375 361.472656 "/>
<path style=" stroke:none;fill-rule:nonzero;fill:rgb(100%,76.469421%,5.879211%);fill-opacity:1;" d="M 795.421875 166.578125 C 797.785156 163.929688 794.761719 160.714844 791.640625 162.230469 C 790.222656 162.890625 789.277344 164.59375 789.75 166.011719 C 790.601562 168.660156 793.71875 168.375 795.421875 166.578125 Z M 795.421875 166.578125 "/>
<path style=" stroke:none;fill-rule:nonzero;fill:rgb(100%,76.469421%,5.879211%);fill-opacity:1;" d="M 603.664062 153.433594 C 606.027344 150.785156 603 147.570312 599.878906 149.085938 C 598.460938 149.746094 597.515625 151.449219 597.988281 152.867188 C 598.839844 155.515625 601.960938 155.230469 603.664062 153.433594 Z M 603.664062 153.433594 "/>
<path style=" stroke:none;fill-rule:nonzero;fill:rgb(100%,76.469421%,5.879211%);fill-opacity:1;" d="M 493.316406 175.941406 C 491.898438 176.601562 490.953125 178.304688 491.425781 179.722656 C 492.277344 182.464844 495.492188 182.085938 497.097656 180.289062 C 499.460938 177.640625 496.53125 174.425781 493.316406 175.941406 Z M 493.316406 175.941406 "/>
<path style=" stroke:none;fill-rule:nonzero;fill:rgb(100%,76.469421%,5.879211%);fill-opacity:1;" d="M 174 156.554688 C 174.851562 159.296875 178.066406 158.917969 179.671875 157.121094 C 182.035156 154.472656 179.011719 151.257812 175.890625 152.773438 C 174.472656 153.339844 173.527344 155.042969 174 156.554688 Z M 174 156.554688 "/>
<path style=" stroke:none;fill-rule:nonzero;fill:rgb(100%,76.469421%,5.879211%);fill-opacity:1;" d="M 138.066406 402.890625 C 138.917969 405.632812 142.132812 405.253906 143.742188 403.457031 C 146.105469 400.8125 143.078125 397.59375 139.957031 399.109375 C 138.539062 399.769531 137.59375 401.472656 138.066406 402.890625 Z M 138.066406 402.890625 "/>
<path style=" stroke:none;fill-rule:nonzero;fill:rgb(100%,76.469421%,5.879211%);fill-opacity:1;" d="M 208.511719 251.117188 L 177.402344 258.304688 L 204.351562 261.425781 L 200.191406 273.8125 L 210.496094 266.625 L 208.511719 286.296875 L 218.820312 268.707031 L 225.058594 311.070312 L 231.207031 270.785156 L 242.648438 282.132812 L 234.324219 265.585938 L 245.765625 270.785156 L 236.40625 258.304688 L 264.394531 255.183594 L 236.40625 250.078125 L 246.710938 241.757812 L 234.324219 243.835938 L 242.648438 227.289062 L 228.085938 241.757812 L 222.980469 202.417969 L 219.859375 240.714844 L 206.433594 224.167969 L 211.539062 244.875 L 193.949219 238.636719 Z M 208.511719 251.117188 "/>
<g clip-path="url(#clip2)" clip-rule="nonzero">
<path style=" stroke:none;fill-rule:nonzero;fill:rgb(100%,76.469421%,5.879211%);fill-opacity:1;" d="M 655.007812 133.101562 L 648.480469 120.527344 L 657.371094 124.496094 L 650.089844 114.945312 L 671.835938 112.582031 L 650.089844 108.707031 L 658.222656 102.371094 L 648.480469 103.882812 L 655.007812 91.304688 L 643.660156 102.371094 L 639.6875 72.394531 L 637.230469 101.519531 L 626.828125 88.941406 L 630.800781 104.734375 L 617.089844 100.007812 L 628.4375 109.460938 L 604.230469 114.945312 L 625.222656 117.3125 L 622.007812 126.863281 L 630.042969 121.28125 L 628.4375 136.316406 L 636.472656 122.890625 L 641.296875 155.230469 L 646.117188 124.496094 Z M 655.007812 133.101562 "/>
</g>
<path style=" stroke:none;fill-rule:nonzero;fill:rgb(100%,76.469421%,5.879211%);fill-opacity:1;" d="M 573.78125 610.265625 L 583.898438 602.324219 L 571.703125 604.308594 L 579.835938 588.421875 L 565.652344 602.324219 L 560.640625 564.6875 L 557.613281 601.378906 L 544.46875 585.492188 L 549.480469 605.351562 L 532.273438 599.394531 L 546.457031 611.308594 L 516.105469 618.210938 L 542.390625 621.238281 L 538.324219 633.152344 L 548.441406 626.152344 L 546.457031 644.972656 L 556.574219 628.140625 L 562.625 668.800781 L 568.675781 630.125 L 579.835938 641.09375 L 571.703125 625.207031 L 582.859375 630.125 L 573.78125 618.210938 L 601.109375 615.28125 Z M 573.78125 610.265625 "/>
<path style=" stroke:none;fill-rule:nonzero;fill:rgb(100%,76.469421%,5.879211%);fill-opacity:1;" d="M 746.0625 391.449219 L 742.753906 400.8125 L 750.980469 395.324219 L 749.375 410.078125 L 757.503906 396.933594 L 762.421875 428.707031 L 767.339844 398.445312 L 776.324219 406.957031 L 769.796875 394.570312 L 778.78125 398.445312 L 771.40625 389.179688 L 793.53125 386.816406 L 771.40625 382.9375 L 779.632812 376.695312 L 769.796875 378.304688 L 776.324219 365.917969 L 764.882812 376.695312 L 760.816406 347.289062 L 758.355469 375.941406 L 747.671875 363.554688 L 751.832031 379.0625 L 737.933594 374.425781 L 749.375 383.695312 L 724.789062 389.179688 Z M 746.0625 391.449219 "/>
<path style=" stroke:none;fill-rule:nonzero;fill:rgb(100%,76.469421%,5.879211%);fill-opacity:1;" d="M 391.761719 677.027344 L 399.328125 671.261719 L 390.25 672.679688 L 396.300781 661.238281 L 385.710938 671.261719 L 381.929688 644.027344 L 379.660156 670.597656 L 369.824219 659.0625 L 373.605469 673.433594 L 360.746094 669.179688 L 371.339844 677.691406 L 348.644531 682.703125 L 368.3125 684.878906 L 365.285156 693.484375 L 372.851562 688.472656 L 371.339844 702.089844 L 378.902344 689.890625 L 383.441406 719.296875 L 387.980469 691.308594 L 396.300781 699.25 L 390.25 687.714844 L 398.570312 691.308594 L 391.761719 682.703125 L 412.089844 680.621094 Z M 391.761719 677.027344 "/>
<path style=" stroke:none;fill-rule:nonzero;fill:rgb(100%,76.469421%,5.879211%);fill-opacity:1;" d="M 227.421875 453.859375 L 231.300781 430.125 L 238.296875 436.839844 L 233.191406 427.097656 L 240.28125 430.125 L 234.515625 422.84375 L 251.820312 421.046875 L 234.515625 418.019531 L 240.851562 413.199219 L 233.191406 414.332031 L 238.296875 404.6875 L 229.410156 413.199219 L 226.195312 390.125 L 224.207031 412.535156 L 215.886719 402.796875 L 219.101562 414.996094 L 208.226562 411.308594 L 217.210938 418.589844 L 198.015625 422.84375 L 214.660156 424.734375 L 212.105469 432.015625 L 218.441406 427.761719 L 217.210938 439.296875 L 223.640625 428.992188 Z M 227.421875 453.859375 "/>
<path style=" stroke:none;fill-rule:nonzero;fill:rgb(100%,76.469421%,5.879211%);fill-opacity:1;" d="M 32.355469 441.945312 L 31.125 452.914062 L 37.175781 443.082031 L 40.863281 466.816406 L 44.550781 444.308594 L 51.171875 450.644531 L 46.347656 441.378906 L 53.0625 444.308594 L 47.578125 437.3125 L 64.03125 435.609375 L 47.578125 432.679688 L 53.628906 428.042969 L 46.347656 429.273438 L 51.171875 420.007812 L 42.660156 428.042969 L 39.632812 406.105469 L 37.839844 427.476562 L 29.894531 418.210938 L 32.921875 429.839844 L 22.519531 426.34375 L 31.125 433.246094 L 12.78125 437.3125 L 28.667969 439.109375 L 26.207031 446.011719 Z M 32.355469 441.945312 "/>
<path style=" stroke:none;fill-rule:nonzero;fill:rgb(100%,76.469421%,5.879211%);fill-opacity:1;" d="M 793.625 666.25 L 809.605469 664.546875 L 793.625 661.710938 L 799.488281 657.171875 L 792.398438 658.304688 L 797.125 649.320312 L 788.804688 657.171875 L 785.871094 635.800781 L 784.074219 656.601562 L 776.324219 647.621094 L 779.347656 658.871094 L 769.230469 655.46875 L 777.550781 662.277344 L 759.773438 666.25 L 775.1875 667.855469 L 772.824219 674.664062 L 778.78125 670.691406 L 777.550781 681.378906 L 783.507812 671.828125 L 787.007812 694.902344 L 790.601562 672.960938 L 797.125 679.109375 L 792.398438 670.125 L 798.921875 672.960938 Z M 793.625 666.25 "/>
<path style=" stroke:none;fill-rule:nonzero;fill:rgb(100%,76.469421%,5.879211%);fill-opacity:1;" d="M 64.3125 106.71875 L 62.140625 113.054688 L 67.625 109.367188 L 66.582031 119.390625 L 72.160156 110.40625 L 75.472656 132.0625 L 78.78125 111.449219 L 84.925781 117.214844 L 80.484375 108.800781 L 86.628906 111.449219 L 81.617188 105.113281 L 96.558594 103.503906 L 81.617188 100.855469 L 87.101562 96.695312 L 80.484375 97.738281 L 84.925781 89.320312 L 77.078125 96.695312 L 74.335938 76.648438 L 72.636719 96.128906 L 65.449219 87.714844 L 68.191406 98.304688 L 58.734375 95.089844 L 66.582031 101.425781 L 49.847656 105.113281 Z M 64.3125 106.71875 "/>
<path style=" stroke:none;fill-rule:nonzero;fill:rgb(100%,76.469421%,5.879211%);fill-opacity:1;" d="M 236.027344 133.574219 L 243.78125 119.675781 L 255.980469 129.699219 L 248.226562 113.8125 L 260.140625 106.058594 L 244.632812 106.152344 L 238.863281 91.589844 L 236.691406 108.234375 L 221.371094 113.054688 L 236.59375 116.082031 Z M 236.027344 133.574219 "/>
<path style=" stroke:none;fill-rule:nonzero;fill:rgb(100%,76.469421%,5.879211%);fill-opacity:1;" d="M 419.5625 265.300781 L 405.566406 265.300781 L 416.914062 270.882812 L 412.566406 284.59375 L 422.492188 275.988281 L 432.894531 286.011719 L 428.828125 272.207031 L 440.082031 268.140625 L 427.125 265.773438 L 424.480469 253.199219 Z M 419.5625 265.300781 "/>
<path style=" stroke:none;fill-rule:nonzero;fill:rgb(100%,76.469421%,5.879211%);fill-opacity:1;" d="M 376.347656 355.703125 L 381.265625 368.09375 L 383.347656 356.082031 L 396.679688 357.21875 L 385.710938 349.652344 L 391.289062 340.195312 L 380.699219 346.058594 L 371.433594 338.683594 L 374.929688 350.21875 L 365.003906 358.351562 Z M 376.347656 355.703125 "/>
<path style=" stroke:none;fill-rule:nonzero;fill:rgb(100%,76.469421%,5.879211%);fill-opacity:1;" d="M 356.207031 194 L 344.769531 197.214844 L 356.683594 199.203125 L 362.355469 214.332031 L 362.828125 198.257812 L 372 194.570312 L 362.070312 193.054688 L 357.628906 178.871094 Z M 356.207031 194 "/>
<path style=" stroke:none;fill-rule:nonzero;fill:rgb(100%,76.469421%,5.879211%);fill-opacity:1;" d="M 266.609375 129.855469 L 339.472656 183.519531 L 337.507812 186.183594 L 264.644531 132.519531 Z M 266.609375 129.855469 "/>
<path style=" stroke:none;fill-rule:nonzero;fill:rgb(100%,76.469421%,5.879211%);fill-opacity:1;" d="M 379.066406 211.371094 L 411.621094 250.339844 L 409.082031 252.460938 L 376.527344 213.492188 Z M 379.066406 211.371094 "/>
<path style=" stroke:none;fill-rule:nonzero;fill:rgb(100%,76.469421%,5.879211%);fill-opacity:1;" d="M 420.675781 294.714844 L 423.566406 296.324219 L 401.367188 336.238281 L 398.472656 334.628906 Z M 420.675781 294.714844 "/>
<path style=" stroke:none;fill-rule:nonzero;fill:rgb(100%,76.469421%,5.879211%);fill-opacity:1;" d="M 152.0625 628.328125 L 143.929688 639.960938 L 131.449219 636.082031 L 141.378906 643.933594 L 133.8125 655.753906 L 143.929688 648.660156 L 148.5625 660.195312 L 149.507812 646.863281 L 159.53125 646.296875 L 150.453125 641.472656 Z M 152.0625 628.328125 "/>
<path style=" stroke:none;fill-rule:nonzero;fill:rgb(100%,76.469421%,5.879211%);fill-opacity:1;" d="M 41.335938 550.789062 L 43.417969 560.527344 L 46.441406 551.070312 L 54.386719 552.960938 L 47.859375 546.722656 L 51.074219 538.496094 L 43.699219 543.601562 L 35.757812 538.210938 L 40.109375 545.777344 L 32.355469 551.921875 Z M 41.335938 550.789062 "/>
<path style=" stroke:none;fill-rule:nonzero;fill:rgb(100%,76.469421%,5.879211%);fill-opacity:1;" d="M 273.1875 641.09375 L 272.148438 631.164062 L 267.230469 640.148438 L 256.359375 639.015625 L 264.773438 644.308594 L 260.140625 654.617188 L 268.648438 648.753906 L 275.929688 657.453125 L 273.945312 646.296875 L 283.023438 644.027344 Z M 273.1875 641.09375 "/>
<path style=" stroke:none;fill-rule:nonzero;fill:rgb(100%,76.469421%,5.879211%);fill-opacity:1;" d="M 253.238281 518.445312 L 252.386719 510.316406 L 248.414062 517.691406 L 239.527344 516.746094 L 246.335938 521 L 242.648438 529.511719 L 249.550781 524.6875 L 255.507812 531.78125 L 253.898438 522.703125 L 261.273438 520.8125 Z M 253.238281 518.445312 "/>
<path style=" stroke:none;fill-rule:nonzero;fill:rgb(100%,76.469421%,5.879211%);fill-opacity:1;" d="M 340.890625 562.796875 L 344.011719 555.800781 L 337.203125 560.714844 L 330.207031 556.460938 L 333.609375 564.121094 L 327.464844 570.550781 L 335.027344 567.714844 L 339.472656 575.847656 L 339.851562 567.429688 L 349.117188 567.050781 Z M 340.890625 562.796875 "/>
<path style=" stroke:none;fill-rule:nonzero;fill:rgb(100%,76.469421%,5.879211%);fill-opacity:1;" d="M 319.710938 524.027344 L 324.628906 513.433594 L 333.609375 516.839844 L 326.992188 508.613281 L 331.90625 499.535156 L 322.546875 504.355469 L 314.035156 496.980469 L 318.007812 506.34375 L 308.078125 512.394531 L 318.671875 512.394531 Z M 319.710938 524.027344 "/>
<path style=" stroke:none;fill-rule:nonzero;fill:rgb(100%,76.469421%,5.879211%);fill-opacity:1;" d="M 234.324219 594.003906 L 248.035156 591.636719 L 233.757812 586.152344 L 233.378906 571.308594 L 225.152344 584.074219 L 209.175781 581.140625 L 220.992188 589.9375 L 212.957031 604.78125 L 226.195312 596.933594 L 235.933594 610.742188 Z M 234.324219 594.003906 "/>
<path style=" stroke:none;fill-rule:nonzero;fill:rgb(100%,76.469421%,5.879211%);fill-opacity:1;" d="M 144.875 549.746094 L 136.460938 541.332031 L 140.90625 530.550781 L 130.976562 537.074219 L 120.574219 529.792969 L 126.152344 539.914062 L 115.753906 547.855469 L 127.667969 546.53125 L 130.125 559.488281 L 134.378906 547.003906 Z M 144.875 549.746094 "/>
<path style=" stroke:none;fill-rule:nonzero;fill:rgb(100%,76.469421%,5.879211%);fill-opacity:1;" d="M 243.121094 717.027344 L 238.296875 709.652344 L 238.109375 718.636719 L 229.21875 722.039062 L 237.917969 722.890625 L 238.488281 732.726562 L 242.742188 724.78125 L 251.820312 728.660156 L 245.863281 720.71875 L 252.007812 715.328125 Z M 243.121094 717.027344 "/>
<path style=" stroke:none;fill-rule:nonzero;fill:rgb(100%,76.469421%,5.879211%);fill-opacity:1;" d="M 125.335938 627.898438 L 55.429688 562.550781 L 57.820312 559.996094 L 127.726562 625.34375 Z M 125.335938 627.898438 "/>
<path style=" stroke:none;fill-rule:nonzero;fill:rgb(100%,76.469421%,5.879211%);fill-opacity:1;" d="M 110.46875 543.558594 L 61.800781 540.082031 L 62.046875 536.59375 L 110.71875 540.066406 Z M 110.46875 543.558594 "/>
<path style=" stroke:none;fill-rule:nonzero;fill:rgb(100%,76.469421%,5.879211%);fill-opacity:1;" d="M 151.53125 552.03125 L 202.972656 577.0625 L 201.441406 580.210938 L 150 555.175781 Z M 151.53125 552.03125 "/>
<path style=" stroke:none;fill-rule:nonzero;fill:rgb(100%,76.469421%,5.879211%);fill-opacity:1;" d="M 222.453125 710.171875 L 161.300781 658.597656 L 163.554688 655.921875 L 224.707031 707.496094 Z M 222.453125 710.171875 "/>
<path style=" stroke:none;fill-rule:nonzero;fill:rgb(100%,76.469421%,5.879211%);fill-opacity:1;" d="M 248.460938 706.75 L 245.285156 705.285156 L 265.453125 661.476562 L 268.628906 662.941406 Z M 248.460938 706.75 "/>
<path style=" stroke:none;fill-rule:nonzero;fill:rgb(100%,76.469421%,5.879211%);fill-opacity:1;" d="M 261.53125 630.515625 L 242.761719 606.179688 L 245.53125 604.042969 L 264.300781 628.378906 Z M 261.53125 630.515625 "/>
<path style=" stroke:none;fill-rule:nonzero;fill:rgb(100%,76.469421%,5.879211%);fill-opacity:1;" d="M 245.226562 535.210938 L 248.503906 536.441406 L 238.078125 564.242188 L 234.800781 563.015625 Z M 245.226562 535.210938 "/>
<path style=" stroke:none;fill-rule:nonzero;fill:rgb(100%,76.469421%,5.879211%);fill-opacity:1;" d="M 334.230469 546.351562 L 328.664062 522.691406 L 332.070312 521.890625 L 337.636719 545.546875 Z M 334.230469 546.351562 "/>
<path style=" stroke:none;fill-rule:nonzero;fill:rgb(100%,76.469421%,5.879211%);fill-opacity:1;" d="M 263.289062 512.828125 L 262.386719 509.445312 L 304.140625 498.308594 L 305.042969 501.691406 Z M 263.289062 512.828125 "/>
<path style=" stroke:none;fill-rule:nonzero;fill:rgb(100%,76.469421%,5.879211%);fill-opacity:1;" d="M 531.328125 531.589844 L 544.09375 517.597656 L 554.871094 533.386719 L 551.847656 512.960938 L 566.691406 508.800781 L 551.46875 504.640625 L 549.386719 484.40625 L 541.066406 504.546875 L 521.210938 503.03125 L 538.703125 511.355469 Z M 531.328125 531.589844 "/>
<path style=" stroke:none;fill-rule:nonzero;fill:rgb(100%,76.469421%,5.879211%);fill-opacity:1;" d="M 669.664062 696.414062 L 659.640625 679.769531 L 660.113281 700.480469 L 641.296875 707.195312 L 660.679688 707.382812 L 662.097656 727.902344 L 668.148438 710.597656 L 684.320312 719.960938 L 673.351562 703.507812 L 685.265625 693.859375 Z M 669.664062 696.414062 "/>
<path style=" stroke:none;fill-rule:nonzero;fill:rgb(100%,76.469421%,5.879211%);fill-opacity:1;" d="M 764.125 533.671875 L 782.46875 536.886719 L 766.582031 525.160156 L 774.527344 512.109375 L 760.71875 519.769531 L 745.589844 507.476562 L 753.15625 526.863281 L 737.742188 539.535156 L 755.898438 533.105469 L 764.3125 551.921875 Z M 764.125 533.671875 "/>
<path style=" stroke:none;fill-rule:nonzero;fill:rgb(100%,76.469421%,5.879211%);fill-opacity:1;" d="M 634.582031 547.289062 L 624.9375 551.542969 L 620.964844 543.789062 L 620.398438 553.339844 L 611.605469 556.460938 L 620.871094 558.917969 L 622.101562 569.039062 L 625.125 560.242188 L 635.527344 562.136719 L 628.339844 555.800781 Z M 634.582031 547.289062 "/>
<path style=" stroke:none;fill-rule:nonzero;fill:rgb(100%,76.469421%,5.879211%);fill-opacity:1;" d="M 689.519531 596.652344 L 693.679688 586.910156 L 685.265625 593.339844 L 679.496094 586.816406 L 681.292969 596.175781 L 673.445312 601.285156 L 682.996094 601.472656 L 686.683594 611.023438 L 687.535156 601.757812 L 698.03125 601.191406 Z M 689.519531 596.652344 "/>
<path style=" stroke:none;fill-rule:nonzero;fill:rgb(100%,76.469421%,5.879211%);fill-opacity:1;" d="M 596.125 540.023438 L 573.367188 523.570312 L 575.25 520.964844 L 598.007812 537.417969 Z M 596.125 540.023438 "/>
<path style=" stroke:none;fill-rule:nonzero;fill:rgb(100%,76.469421%,5.879211%);fill-opacity:1;" d="M 679.730469 622.957031 L 682.847656 623.746094 L 671.851562 667.199219 L 668.734375 666.410156 Z M 679.730469 622.957031 "/>
<path style=" stroke:none;fill-rule:nonzero;fill:rgb(100%,76.469421%,5.879211%);fill-opacity:1;" d="M 735 548.382812 L 737.328125 550.605469 L 706.382812 583.027344 L 704.054688 580.808594 Z M 735 548.382812 "/>
<path style=" stroke:none;fill-rule:nonzero;fill:rgb(100%,76.469421%,5.879211%);fill-opacity:1;" d="M 664.136719 587.945312 L 641.378906 571.492188 L 643.261719 568.886719 L 666.019531 585.339844 Z M 664.136719 587.945312 "/>
</g>
</svg>
