<?xml version="1.0" encoding="UTF-8"?>
<svg xmlns="http://www.w3.org/2000/svg" xmlns:xlink="http://www.w3.org/1999/xlink" width="810pt" height="809.999993pt" viewBox="0 0 810 809.999993" version="1.2">
<defs>
<clipPath id="clip1">
  <path d="M 349 208 L 809.769531 208 L 809.769531 393 L 349 393 Z M 349 208 "/>
</clipPath>
<clipPath id="clip2">
  <path d="M 53 91 L 710.621094 91 L 710.621094 764.046875 L 53 764.046875 Z M 53 91 "/>
</clipPath>
</defs>
<g id="surface1">
<path style=" stroke:none;fill-rule:nonzero;fill:rgb(56.079102%,37.249756%,23.919678%);fill-opacity:1;" d="M 380.027344 611.945312 L 398.234375 740.964844 C 400.226562 742.6875 403.253906 744.980469 406.980469 747.5625 C 420.167969 756.304688 437.226562 763.042969 439.089844 760.03125 C 440.238281 758.3125 436.222656 754.011719 433.070312 750.714844 C 427.625 744.695312 421.730469 741.539062 418.019531 739.964844 C 419.738281 695.953125 421.601562 652.085938 423.324219 608.074219 C 417.015625 608.503906 410.707031 609.078125 404.398438 609.652344 C 396.226562 610.371094 388.042969 611.085938 380.027344 611.945312 Z M 314.800781 583.273438 C 289.125 619.113281 263.480469 654.953125 237.820312 690.792969 C 239.253906 694.234375 241.261719 699.394531 243.554688 705.558594 C 249.574219 722.761719 251.007812 731.933594 252.441406 731.792969 C 253.730469 731.648438 254.878906 724.765625 254.59375 694.664062 C 290.144531 662.835938 325.683594 631.011719 361.25 599.1875 C 356.230469 599.761719 346.339844 600.335938 334.871094 596.035156 C 324.964844 592.59375 318.386719 586.859375 314.800781 583.273438 Z M 672.761719 710 C 674.914062 711.722656 680.074219 716.453125 682.222656 724.480469 C 685.507812 736.808594 678.925781 746.84375 677.921875 748.421875 C 686.941406 736.523438 696.128906 724.480469 705.160156 712.582031 L 688.675781 694.375 Z M 563.652344 722.1875 C 563.8125 729.355469 563.953125 736.664062 564.097656 743.832031 C 551.46875 749.566406 538.867188 755.160156 526.253906 760.894531 C 530.554688 757.023438 536.574219 750.570312 541.433594 741.253906 C 545.175781 733.941406 546.894531 727.347656 547.882812 722.332031 L 563.652344 722.1875 "/>
<path style=" stroke:none;fill-rule:nonzero;fill:rgb(23.139954%,33.729553%,44.709778%);fill-opacity:1;" d="M 171.582031 72.066406 L 168.859375 53.144531 C 162.410156 52.28125 150.941406 51.566406 138.183594 56.296875 C 113.382812 65.476562 103.199219 87.550781 101.050781 92.28125 C 100.046875 92.566406 81.84375 97.585938 80.550781 108.050781 C 79.40625 117.507812 92.878906 126.257812 102.484375 132.5625 C 106.066406 134.859375 110.800781 137.871094 117.398438 140.160156 C 133.589844 145.609375 148.359375 142.597656 155.8125 140.304688 C 156.820312 138.726562 157.960938 136.4375 158.679688 133.425781 C 160.113281 127.402344 158.539062 122.386719 157.675781 120.234375 C 162.410156 104.179688 166.996094 88.121094 171.582031 72.066406 Z M 259.324219 346.449219 L 377.589844 321.074219 L 356.949219 448.664062 L 356.949219 589.582031 L 332.003906 589.582031 C 326.988281 563.921875 320.25 544.425781 314.929688 531.09375 C 310.628906 520.484375 303.046875 503.28125 300.753906 481.632812 C 300.464844 478.765625 299.878906 472.890625 299.605469 465.722656 C 298.890625 452.53125 299.320312 441.636719 299.605469 433.898438 L 285.988281 468.589844 L 307.632812 574.386719 C 306.628906 574.527344 305.769531 574.816406 304.765625 574.957031 C 306.199219 579.832031 307.761719 584.851562 309.195312 589.722656 C 297.457031 595.601562 285.699219 601.480469 274.074219 607.355469 C 273.085938 606.785156 271.792969 605.921875 271.207031 604.488281 C 270.074219 601.335938 273.945312 597.753906 277.527344 593.164062 C 279.964844 590.011719 283.121094 585.28125 285.988281 578.972656 C 289.285156 578.257812 292.710938 577.539062 296.023438 576.824219 C 297.886719 576.390625 299.605469 576.105469 301.46875 575.675781 C 295.304688 576.964844 289.285156 578.257812 283.121094 579.546875 C 269.929688 547.148438 260.757812 524.785156 255.308594 511.308594 C 247.136719 491.527344 243.410156 482.636719 241.691406 468.730469 C 239.828125 453.964844 241.261719 442.785156 245.703125 417.554688 C 248.988281 398.058594 253.445312 374.117188 259.324219 346.449219 "/>
<path style=" stroke:none;fill-rule:nonzero;fill:rgb(56.079102%,37.249756%,23.919678%);fill-opacity:1;" d="M 96.609375 465.148438 C 85.859375 464.003906 76.539062 461.277344 68.941406 458.410156 C 70.089844 466.726562 71.09375 475.042969 72.238281 483.355469 C 68.511719 494.25 64.925781 507.007812 62.628906 521.488281 C 57.90625 550.875 59.625 576.25 62.628906 594.886719 L 78.546875 594.886719 C 81.984375 574.101562 85.859375 557.472656 88.726562 546.003906 C 93.3125 527.941406 96.75 518.046875 100.046875 499.984375 C 102.769531 485.648438 103.917969 473.75 104.632812 465.867188 C 102.050781 465.578125 99.476562 465.4375 96.609375 465.148438 Z M 145.058594 456.546875 C 135.316406 457.121094 127.570312 459.703125 122.554688 461.851562 C 123.554688 468.589844 124.703125 475.472656 125.707031 482.210938 C 121.121094 494.25 116.535156 508.300781 113.097656 524.210938 C 107.214844 551.59375 106.5 575.820312 107.363281 594.742188 L 122.121094 594.742188 C 130.152344 569.226562 138.324219 549.300781 144.488281 535.394531 C 150.792969 521.203125 156.960938 508.875 160.828125 490.09375 C 163.410156 476.90625 163.84375 465.722656 163.84375 458.125 C 159.257812 457.121094 152.804688 456.117188 145.058594 456.546875 Z M 141.050781 143.027344 C 146.925781 142.597656 152.089844 141.59375 155.957031 140.304688 C 158.253906 141.308594 160.691406 142.171875 162.980469 143.171875 C 166.421875 145.179688 171.007812 148.476562 175.164062 153.496094 C 185.0625 165.824219 184.476562 179.585938 185.351562 202.378906 C 185.78125 213.992188 186.628906 230.765625 188.777344 251.265625 L 232.5 171.128906 C 238.234375 155.929688 241.820312 148.621094 243.253906 148.90625 C 244.269531 149.195312 244.269531 152.921875 243.253906 160.230469 C 261.328125 146.179688 265.058594 146.757812 266.0625 147.761719 C 268.496094 150.054688 263.324219 161.09375 255.882812 168.261719 C 249.429688 174.425781 242.121094 176.863281 237.675781 177.867188 C 237.675781 177.867188 213.734375 247.824219 199.257812 280.222656 C 184.777344 312.621094 171.582031 291.546875 171.582031 291.546875 C 137.035156 292.265625 102.34375 293.125 67.792969 293.839844 C 69.796875 272.195312 71.09375 255.277344 71.808594 244.957031 C 74.816406 202.234375 74.960938 181.449219 89.441406 160.808594 C 92.59375 156.363281 95.601562 153.0625 97.464844 151.199219 C 104.203125 147.472656 110.945312 143.746094 117.683594 140.019531 C 122.839844 141.878906 131.015625 143.605469 141.050781 143.027344 "/>
<path style=" stroke:none;fill-rule:nonzero;fill:rgb(100%,34.118652%,19.999695%);fill-opacity:1;" d="M 332.578125 112.636719 C 336.59375 108.765625 343.601562 101.167969 347.34375 89.269531 C 349.207031 83.535156 351.214844 76.796875 349.0625 69.34375 C 345.480469 57.015625 332.003906 49.847656 321.828125 47.695312 C 311.074219 45.546875 309.785156 50.277344 285.988281 52.859375 C 267.625 54.722656 259.464844 53.574219 257.589844 58.015625 C 256.597656 60.457031 257.171875 64.898438 266.777344 74.078125 C 271.925781 76.652344 277.097656 79.234375 282.261719 81.960938 Z M 472.0625 577.828125 C 469.625 580.550781 467.332031 582.988281 465.039062 585.136719 C 451.707031 597.898438 439.378906 603.488281 430.632812 606.210938 C 420.023438 609.507812 418.019531 607.644531 380.027344 611.945312 C 352.792969 614.957031 352.503906 616.101562 346.46875 614.8125 C 327.558594 610.800781 324.964844 598.902344 304.480469 594.886719 C 292.867188 592.738281 290.71875 595.890625 277.242188 594.886719 C 264.339844 594.027344 249.574219 589.871094 233.519531 579.546875 C 246.121094 550.160156 262.191406 517.761719 282.832031 484.074219 C 286.257812 478.480469 289.84375 472.746094 293.585938 467.011719 C 298.171875 459.988281 302.902344 452.964844 307.921875 445.941406 C 321.683594 426.445312 335.589844 408.8125 349.207031 392.898438 L 422.03125 390.605469 C 437.65625 448.808594 453.269531 507.007812 468.765625 565.210938 C 469.753906 569.371094 470.917969 573.671875 472.0625 577.828125 Z M 591.050781 449.8125 C 582.734375 460.277344 574.277344 472.316406 566.519531 486.367188 C 539.285156 535.394531 533.550781 583.273438 532.832031 614.238281 C 536.71875 649.648438 540.445312 685.058594 544.300781 720.609375 C 545.890625 721.613281 548.1875 722.761719 551.195312 723.476562 C 558.9375 725.199219 565.246094 721.757812 567.109375 720.609375 C 575.121094 671.867188 583.007812 623.269531 591.050781 574.53125 L 604.09375 628.574219 L 667.746094 711.003906 C 669.738281 710.863281 676.632812 710.289062 682.511719 704.699219 C 686.523438 700.96875 688.101562 696.667969 688.816406 694.519531 C 685.664062 685.199219 680.214844 670.722656 671.042969 654.234375 C 659.429688 633.449219 653.839844 630.726562 651.257812 619.402344 C 646.957031 600.046875 657.710938 585.425781 671.757812 559.476562 C 680.359375 543.421875 691.242188 519.195312 698.410156 485.792969 C 692.117188 470.453125 685.949219 455.257812 679.644531 439.917969 C 668.460938 444.078125 653.121094 448.519531 634.484375 450.382812 C 617.285156 452.246094 602.359375 451.386719 591.050781 449.8125 Z M 106.347656 146.324219 C 103.054688 160.804688 103.773438 172.558594 104.773438 180.015625 C 106.0625 189.617188 107.496094 199.082031 114.949219 203.667969 C 119.25 206.25 124.414062 206.390625 126.132812 206.535156 C 126.847656 206.535156 134.300781 206.679688 140.035156 203.09375 C 145.632812 199.511719 147.921875 193.347656 151.367188 173.5625 C 152.9375 164.816406 154.664062 153.492188 156.097656 140.445312 C 159.820312 142.3125 163.550781 144.175781 167.273438 146.039062 C 165.839844 215.28125 170 270.902344 174.015625 308.890625 C 179.605469 361.503906 192.511719 451.101562 171.574219 458.410156 C 165.125 460.707031 158.535156 454.109375 141.046875 457.265625 C 135.449219 458.269531 134.164062 459.273438 118.246094 463 C 106.640625 465.722656 103.773438 466.011719 100.613281 465.867188 C 98.753906 465.867188 96.605469 465.578125 81.835938 461.851562 C 68.9375 458.554688 69.074219 458.410156 65.921875 457.839844 C 53.167969 455.832031 46.714844 459.414062 43.703125 458.410156 C 35.679688 455.6875 37.25 416.265625 72.089844 270.1875 L 97.175781 151.34375 L 106.347656 146.324219 "/>
<path style=" stroke:none;fill-rule:nonzero;fill:rgb(96.469116%,70.199585%,24.308777%);fill-opacity:1;" d="M 279.25 157.792969 C 287.132812 148.332031 295.578125 141.308594 303.191406 136.144531 C 314.085938 136.003906 324.964844 136.003906 336.019531 136.003906 C 341.324219 139.011719 351.214844 145.609375 359.371094 157.648438 C 367.972656 170.410156 370.121094 182.734375 370.710938 188.902344 C 374.292969 232.339844 377.878906 275.632812 381.460938 319.070312 L 360.390625 330.394531 L 331.417969 383.292969 L 307.492188 373.113281 L 325.265625 340.714844 C 299.75 343.011719 274.074219 345.304688 248.570312 347.597656 C 246.707031 303.445312 249.429688 266.601562 252.570312 239.652344 C 257.460938 197.648438 264.039062 176.285156 279.25 157.792969 "/>
<path style=" stroke:none;fill-rule:nonzero;fill:rgb(56.079102%,37.249756%,23.919678%);fill-opacity:1;" d="M 310.929688 374.40625 C 303.621094 381.574219 300.464844 386.015625 301.613281 387.738281 C 302.328125 388.882812 304.894531 388.882812 309.355469 387.738281 C 298.746094 404.796875 299.160156 408.09375 300.179688 408.953125 C 302.328125 410.816406 311.792969 403.792969 317.667969 397.914062 C 323.53125 392.039062 326.988281 386.160156 328.992188 382.003906 C 322.816406 379.566406 316.808594 376.984375 310.929688 374.40625 Z M 285.988281 75.078125 C 283.550781 78.660156 280.109375 84.683594 279.089844 92.710938 C 277.816406 103.464844 280.828125 119.804688 291.578125 123.960938 C 295.734375 125.539062 299.878906 124.96875 302.902344 123.960938 L 302.902344 135.859375 C 305.195312 137.4375 310.214844 140.59375 317.382812 141.023438 C 326.84375 141.738281 333.726562 137.292969 335.875 135.859375 C 336.019531 129.410156 335.300781 123.960938 334.441406 120.234375 C 333.867188 117.800781 333.292969 115.21875 332.433594 112.492188 C 331.144531 108.335938 329.425781 104.753906 327.832031 101.738281 C 329.855469 97.296875 328.550781 92.136719 324.964844 89.269531 C 321.828125 86.6875 317.382812 86.261719 313.65625 88.121094 C 312.78125 86.117188 310.359375 80.953125 304.625 77.367188 C 296.292969 72.210938 287.421875 74.648438 285.988281 75.078125 Z M 169.429688 64.898438 C 170.863281 69.199219 172.589844 75.507812 173.445312 83.101562 C 174.308594 91.417969 176.457031 112.351562 165.847656 118.515625 C 164.128906 119.519531 161.121094 120.667969 156.527344 120.089844 C 154.957031 121.382812 153.375 122.671875 151.804688 123.960938 C 152.660156 122.242188 153.523438 119.660156 153.953125 116.367188 C 154.523438 110.917969 152.804688 106.617188 151.804688 104.605469 C 153.660156 103.03125 157.105469 99.734375 159.257812 94.429688 C 161.835938 87.835938 161.121094 82.101562 160.691406 79.664062 C 161.835938 79.09375 163.125 78.230469 164.414062 76.941406 C 168.859375 72.644531 169.289062 66.910156 169.429688 64.898438 "/>
<path style=" stroke:none;fill-rule:nonzero;fill:rgb(23.139954%,33.729553%,44.709778%);fill-opacity:1;" d="M 369.132812 245.097656 C 357.808594 242.085938 349.207031 233.199219 346.914062 222.019531 C 344.476562 209.6875 350.054688 196.929688 361.105469 190.195312 C 350.496094 191.195312 341.453125 184.601562 340.019531 176.574219 C 338.585938 167.683594 346.625 160.515625 351.929688 157.648438 C 353.078125 157.078125 362.683594 152.058594 372 157.222656 C 379.742188 161.523438 383.898438 170.839844 382.179688 180.585938 C 390.191406 175.425781 400.097656 175.28125 407.554688 180.015625 C 415.28125 185.03125 417.015625 193.488281 417.300781 195.066406 C 412.285156 209.402344 407.125 223.59375 402.105469 237.929688 Z M 726.949219 430.027344 C 726.949219 428.59375 724.929688 420.996094 720.929688 405.800781 C 719.640625 401.214844 716.054688 387.449219 706.164062 355.339844 C 696.847656 325.234375 695.414062 322.082031 691.828125 318.210938 C 680.789062 306.3125 664.71875 303.585938 654.683594 303.015625 C 649.96875 304.160156 644.519531 305.308594 638.355469 305.882812 C 631.1875 306.597656 624.738281 306.453125 619.433594 306.023438 C 615.851562 274.488281 612.265625 243.089844 608.683594 211.554688 C 610.117188 188.617188 610.546875 163.8125 609.527344 137.292969 C 608.96875 123.101562 608.09375 109.484375 606.820312 96.296875 C 603.378906 95.578125 599.078125 94.863281 593.917969 94.71875 C 588.46875 94.71875 583.882812 95.433594 580.296875 96.296875 C 577.429688 129.839844 575.710938 166.394531 575.710938 205.390625 C 575.839844 251.121094 578.433594 293.265625 582.589844 331.542969 C 584.167969 357.917969 582.878906 379.28125 581.015625 394.476562 C 579.007812 411.390625 576.855469 419.417969 582.160156 425.582031 C 586.890625 431.03125 595.492188 432.464844 635.917969 427.160156 C 653.695312 424.867188 668.460938 422.285156 679.5 420.28125 L 679.5 406.949219 L 693.546875 429.742188 L 647.246094 521.777344 L 660.863281 530.519531 C 666.871094 523.640625 675.054688 514.175781 684.375 502.851562 C 723.367188 455.6875 727.382812 442.070312 726.949219 430.027344 "/>
<path style=" stroke:none;fill-rule:nonzero;fill:rgb(56.079102%,37.249756%,23.919678%);fill-opacity:1;" d="M 651.402344 524.640625 C 648.535156 526.507812 643.375 530.375 639.503906 537.257812 C 636.921875 541.988281 635.777344 546.433594 635.332031 549.441406 C 634.613281 552.167969 634.917969 553.027344 635.332031 553.171875 C 636.921875 554.03125 641.652344 545.140625 651.101562 537.402344 C 654.984375 534.246094 658.570312 532.097656 661.136719 530.808594 C 657.851562 528.800781 654.554688 526.792969 651.402344 524.640625 Z M 584.597656 95.722656 C 581.300781 92.136719 576.855469 86.6875 572.699219 79.378906 C 567.953125 71.066406 561.503906 56.875 564.242188 54.863281 C 565.960938 53.71875 571.839844 56.875 591.050781 77.660156 C 592.484375 71.210938 593.757812 67.910156 594.917969 68.050781 C 596.785156 68.199219 598.058594 77.230469 598.933594 95.148438 C 594.203125 95.289062 589.328125 95.4375 584.597656 95.722656 "/>
<g clip-path="url(#clip1)" clip-rule="nonzero">
<path style=" stroke:none;fill-rule:nonzero;fill:rgb(96.469116%,70.199585%,24.308777%);fill-opacity:1;" d="M 611.835938 269.898438 C 626.171875 277.066406 640.347656 284.234375 654.683594 291.402344 C 670.324219 294.554688 682.796875 293.695312 692.257812 291.832031 C 705.304688 289.253906 708.316406 285.523438 719.195312 284.953125 C 736.269531 284.234375 740.699219 292.835938 754.90625 294.414062 C 782.714844 297.421875 812.820312 269.324219 809.511719 258 C 808.378906 254.128906 803.214844 252.410156 792.894531 248.96875 C 781.140625 245.097656 770.804688 244.523438 764.082031 244.8125 C 750.605469 230.90625 738.417969 226.460938 729.945312 224.742188 C 709.75 220.726562 697.847656 230.476562 675.773438 225.890625 C 663.015625 223.164062 653.550781 217.144531 647.816406 212.84375 C 644.808594 211.554688 625.296875 203.238281 606.386719 213.128906 C 598.777344 217.144531 594.058594 222.589844 591.335938 226.460938 L 593.484375 240.511719 Z M 349.0625 392.898438 C 350.210938 367.953125 351.359375 343.152344 352.503906 318.210938 C 365.40625 313.765625 381.03125 309.609375 399.09375 306.597656 C 416.441406 303.875 432.066406 302.871094 445.386719 303.015625 C 445.257812 315.628906 443.824219 332.832031 438.21875 352.328125 C 433.644531 368.097656 427.464844 381 422.03125 390.605469 L 349.0625 392.898438 "/>
</g>
<path style=" stroke:none;fill-rule:nonzero;fill:rgb(56.079102%,37.249756%,23.919678%);fill-opacity:1;" d="M 525.664062 249.6875 C 523.671875 259.71875 520.089844 267.605469 517.363281 272.765625 C 515.628906 285.382812 512.921875 303.300781 509.050781 325.089844 C 501.164062 369.816406 497.152344 380.570312 488.980469 383.148438 C 480.089844 386.015625 469.484375 377.703125 460.882812 370.964844 C 449.269531 361.933594 443.105469 351.46875 440.09375 345.160156 C 441.800781 331.113281 443.679688 317.0625 445.386719 303.15625 L 352.503906 318.210938 L 350.925781 392.898438 C 369.132812 378.132812 387.324219 363.367188 405.546875 348.601562 C 413.71875 332.6875 418.734375 325.089844 420.742188 325.808594 C 421.730469 326.238281 421.890625 329.105469 421.171875 334.550781 C 436.367188 318.925781 439.523438 319.070312 440.523438 319.785156 C 442.960938 321.507812 438.804688 333.40625 431.492188 341.71875 C 424.597656 349.460938 416.296875 352.757812 411.425781 354.191406 C 408.414062 361.214844 403.394531 371.109375 395.511719 381.859375 C 385.761719 394.90625 372.144531 408.378906 359.242188 417.125 C 353.363281 421.140625 347.773438 424.148438 342.613281 425.871094 C 336.59375 427.878906 331.289062 428.019531 327.417969 425.726562 C 322.257812 422.714844 320.964844 415.546875 318.242188 401.214844 C 316.363281 391.464844 315.519531 379.851562 317.796875 358.78125 C 319.101562 346.59375 321.683594 329.964844 326.84375 310.613281 C 332.433594 303.015625 339.171875 294.554688 347.34375 285.953125 C 354.796875 278.070312 362.109375 271.476562 368.992188 265.886719 C 369.132812 259.003906 369.277344 251.980469 369.40625 245.097656 L 375.441406 236.785156 C 373.707031 233.054688 374.726562 228.613281 377.734375 226.175781 C 380.15625 224.167969 383.742188 223.738281 386.765625 225.027344 C 390.351562 222.878906 394.222656 220.296875 398.078125 217.144531 C 407.265625 209.6875 413.429688 201.660156 417.429688 195.210938 C 419.164062 200.65625 421.316406 208.828125 421.601562 218.722656 C 422.03125 230.1875 422.449219 243.089844 414.433594 248.683594 C 412.714844 249.828125 407.839844 252.695312 398.523438 250.546875 C 397.660156 251.980469 396.085938 255.277344 396.226562 259.578125 C 396.371094 262.445312 397.089844 264.59375 397.804688 266.027344 C 406.835938 267.605469 415.996094 269.183594 425.042969 270.617188 C 428.625 271.1875 432.210938 271.761719 435.792969 272.480469 C 439.089844 276.351562 442.390625 280.363281 445.6875 284.664062 C 461.871094 305.882812 473.210938 327.097656 481.222656 346.449219 C 489.554688 321.21875 497.867188 295.988281 506.3125 270.757812 C 507.1875 266.316406 508.332031 259.71875 508.621094 251.691406 C 509.050781 240.796875 507.902344 232.914062 509.050781 232.769531 C 509.621094 232.625 510.613281 234.488281 513.207031 243.378906 C 520.375 223.308594 523.671875 219.582031 525.390625 219.867188 C 528.117188 220.296875 528.402344 236.355469 525.664062 249.6875 Z M 679.644531 420.566406 C 662.726562 424.4375 643.375 427.589844 622.15625 429.167969 C 611.261719 430.027344 600.925781 430.3125 591.050781 430.3125 C 591.910156 432.609375 593.199219 436.765625 592.914062 441.925781 C 592.625 445.222656 591.910156 447.945312 591.050781 449.953125 C 602.359375 451.53125 617.285156 452.535156 634.484375 450.671875 C 652.980469 448.808594 668.304688 444.363281 679.644531 440.207031 C 678.925781 437.910156 678.210938 434.613281 678.066406 430.601562 C 678.066406 426.300781 678.925781 422.859375 679.644531 420.566406 Z M 641.222656 281.367188 C 630.757812 271.1875 626.601562 259.578125 624.738281 253.269531 C 622.429688 253.554688 614.273438 254.128906 606.246094 248.683594 C 598.21875 243.234375 595.492188 235.492188 594.917969 233.34375 C 593.488281 238.21875 592.054688 244.523438 591.480469 252.121094 C 590.761719 261.871094 589.328125 282.515625 600.082031 289.683594 C 603.792969 292.261719 606.53125 291.402344 611.40625 295.417969 C 615.707031 298.855469 618 303.15625 619.289062 306.167969 C 624.019531 306.597656 629.597656 306.597656 635.777344 306.167969 C 642.945312 305.59375 649.25 304.449219 654.554688 303.15625 L 654.554688 291.402344 C 650.683594 289.109375 645.953125 285.953125 641.222656 281.367188 "/>
<path style=" stroke:none;fill-rule:nonzero;fill:rgb(96.469116%,70.199585%,24.308777%);fill-opacity:1;" d="M 409.703125 405.65625 C 403.96875 405.65625 399.382812 410.386719 399.382812 416.121094 C 399.382812 421.855469 403.96875 426.445312 409.703125 426.445312 C 415.4375 426.445312 420.023438 421.855469 420.023438 416.121094 C 420.023438 410.386719 415.4375 405.65625 409.703125 405.65625 Z M 388.199219 568.796875 C 382.464844 568.796875 377.878906 573.382812 377.878906 579.117188 C 377.878906 584.851562 382.464844 589.582031 388.199219 589.582031 C 393.933594 589.582031 398.664062 584.851562 398.664062 579.117188 C 398.664062 573.382812 393.933594 568.796875 388.199219 568.796875 Z M 273.660156 564.496094 C 267.925781 564.496094 263.324219 569.226562 263.324219 574.960938 C 263.324219 580.695312 267.925781 585.28125 273.660156 585.28125 C 279.394531 585.28125 284.109375 580.695312 284.109375 574.960938 C 284.109375 569.226562 279.394531 564.496094 273.660156 564.496094 Z M 409.703125 466.441406 C 403.96875 466.441406 399.382812 471.027344 399.382812 476.761719 C 399.382812 482.496094 403.96875 487.226562 409.703125 487.226562 C 415.4375 487.226562 420.023438 482.496094 420.023438 476.761719 C 420.023438 471.027344 415.4375 466.441406 409.703125 466.441406 Z M 468.765625 565.210938 C 467.605469 564.78125 466.328125 564.496094 465.039062 564.496094 C 459.304688 564.496094 454.703125 569.226562 454.703125 574.960938 C 454.703125 580.695312 459.304688 585.28125 465.039062 585.28125 L 465.183594 585.28125 C 467.476562 582.988281 469.914062 580.550781 472.207031 577.972656 C 470.917969 573.671875 469.753906 569.371094 468.765625 565.210938 Z M 342.328125 513.316406 C 336.59375 513.316406 331.859375 517.90625 331.859375 523.640625 C 331.859375 529.375 336.433594 534.105469 342.328125 534.105469 C 348.058594 534.105469 352.648438 529.375 352.648438 523.640625 C 352.648438 517.90625 348.058594 513.316406 342.328125 513.316406 Z M 293.585938 467.011719 L 282.832031 484.074219 C 284.695312 485.9375 287.277344 487.226562 290.289062 487.226562 C 296.023438 487.226562 300.753906 482.496094 300.753906 476.761719 C 300.464844 472.175781 297.597656 468.445312 293.585938 467.011719 Z M 607.964844 154.210938 C 607.820312 154.066406 607.679688 153.925781 607.535156 153.925781 L 607.378906 153.925781 C 607.25 153.925781 607.25 154.066406 607.105469 154.066406 C 605.945312 153.492188 603.378906 152.632812 603.078125 152.632812 C 600.367188 152.207031 597.644531 151.914062 594.917969 151.773438 C 589.328125 151.34375 583.308594 150.625 577.859375 152.058594 C 576.714844 152.34375 576.554688 154.355469 577.859375 154.640625 C 585.457031 155.929688 593.917969 155.070312 601.644531 155.496094 C 601.945312 155.644531 608.96875 156.792969 607.964844 154.210938 Z M 609.6875 143.605469 C 602.949219 140.878906 596.496094 139.160156 589.1875 139.160156 C 586.320312 139.160156 577.859375 138.726562 576.285156 141.738281 C 575.710938 142.742188 576.714844 144.320312 577.859375 143.890625 L 577.988281 143.890625 C 578.148438 143.890625 578.148438 143.890625 578.289062 143.746094 C 580.855469 142.457031 584.3125 142.171875 587.609375 142.171875 C 589.757812 142.171875 591.910156 142.3125 593.757812 142.457031 C 598.933594 142.742188 604.238281 143.460938 609.253906 145.039062 C 610.246094 145.179688 610.546875 143.890625 609.6875 143.605469 Z M 607.25 129.269531 C 598.503906 126.402344 587.609375 127.976562 578.863281 129.984375 C 577 130.410156 577.71875 133.277344 579.722656 132.992188 C 588.898438 131.273438 598.21875 131.84375 607.378906 130.269531 C 607.679688 130.125 607.535156 129.410156 607.25 129.269531 Z M 608.394531 117.941406 C 599.078125 115.789062 589.757812 115.503906 580.296875 116.222656 C 578.148438 116.367188 578.148438 119.660156 580.296875 119.519531 C 589.617188 118.800781 598.933594 119.089844 608.253906 119.519531 C 608.96875 119.519531 609.253906 118.085938 608.394531 117.941406 Z M 606.820312 107.90625 C 598.21875 105.613281 588.613281 103.890625 579.867188 105.898438 C 578.433594 106.1875 578.863281 108.335938 580.140625 108.335938 C 589.042969 108.480469 597.5 107.621094 606.53125 109.054688 C 607.25 109.199219 607.679688 108.050781 606.820312 107.90625 Z M 607.25 95.433594 C 604.382812 92.710938 599.492188 92.566406 595.636719 92.566406 C 590.476562 92.421875 585.316406 92.996094 580.296875 94.285156 C 576.855469 95.148438 579.152344 100.019531 581.730469 99.019531 C 586.320312 98.15625 590.890625 97.296875 595.636719 97.296875 C 599.363281 97.296875 603.519531 98.15625 606.820312 96.722656 C 607.378906 96.4375 607.679688 95.863281 607.25 95.433594 Z M 691.398438 492.242188 C 683.945312 488.804688 677.0625 483.640625 670.183594 479.054688 C 668.605469 478.050781 667.027344 480.632812 668.605469 481.636719 C 673.050781 484.359375 677.351562 487.226562 681.792969 489.808594 C 684.660156 491.527344 687.527344 493.535156 691.113281 493.390625 C 691.683594 493.535156 691.957031 492.53125 691.398438 492.242188 Z M 684.789062 501.992188 C 678.640625 496.976562 672.605469 491.671875 666.453125 486.652344 C 664.878906 485.21875 662.441406 487.65625 664.003906 488.945312 C 670.183594 494.25 676.777344 498.980469 683.800781 503.28125 C 684.515625 503.710938 685.507812 502.566406 684.789062 501.992188 Z M 678.925781 509.160156 C 676.1875 506.148438 673.191406 503.28125 670.183594 500.414062 C 667.746094 498.121094 665.308594 495.109375 662.152344 493.964844 C 661.292969 493.675781 660.71875 494.679688 661.007812 495.398438 C 662.570312 498.550781 666.453125 500.988281 669.179688 503.28125 C 672.046875 505.71875 675.054688 508.15625 678.066406 510.308594 C 678.785156 510.738281 679.355469 509.734375 678.925781 509.160156 Z M 673.191406 516.183594 C 671.328125 514.035156 668.460938 512.601562 666.023438 511.023438 C 663.285156 509.304688 660.417969 507.582031 657.550781 506.007812 C 656.117188 505.289062 654.984375 507.296875 656.277344 508.15625 L 664.878906 512.886719 C 667.457031 514.320312 669.894531 516.328125 672.605469 517.1875 C 673.320312 517.1875 673.621094 516.613281 673.191406 516.183594 Z M 667.746094 521.34375 C 662.296875 518.621094 656.707031 516.328125 650.972656 514.035156 C 649.667969 513.460938 649.109375 515.753906 650.382812 516.183594 C 655.988281 518.191406 661.4375 520.339844 666.871094 522.777344 C 667.886719 523.207031 668.75 521.773438 667.746094 521.34375 Z M 661.007812 529.804688 C 659.859375 527.941406 657.550781 526.648438 655.703125 525.644531 C 653.550781 524.355469 651.101562 523.496094 649.109375 522.0625 C 646.800781 520.339844 644.378906 524.355469 646.800781 526.074219 C 648.820312 527.367188 651.402344 528.371094 653.695312 529.375 C 655.703125 530.234375 658.140625 531.523438 660.289062 531.378906 C 660.863281 531.09375 661.4375 530.375 661.007812 529.804688 Z M 678.496094 417.984375 C 671.757812 419.992188 665.738281 422.429688 658.855469 423.578125 C 650.253906 425.011719 641.511719 425.871094 632.765625 426.585938 C 625.023438 427.304688 617.414062 427.734375 609.6875 427.878906 C 603.234375 428.019531 596.210938 427.015625 590.332031 429.597656 C 589.902344 429.742188 589.902344 430.601562 590.332031 430.886719 C 596.496094 433.898438 604.382812 432.894531 611.117188 432.894531 C 619.71875 432.75 628.320312 432.320312 636.921875 431.605469 C 651.101562 430.457031 668.03125 429.882812 680.359375 422 C 682.222656 420.851562 680.933594 417.269531 678.496094 417.984375 Z M 653.550781 302.726562 C 642.5 303.300781 631.90625 308.03125 620.722656 304.589844 C 619.289062 304.160156 618.574219 306.167969 619.71875 307.027344 C 628.035156 312.90625 645.8125 311.042969 654.554688 306.597656 C 656.417969 305.59375 655.558594 302.585938 653.550781 302.726562 Z M 602.085938 303.300781 C 599.792969 306.597656 597.5 309.75 595.191406 312.90625 C 592.914062 316.058594 590.046875 319.070312 588.183594 322.367188 C 587.464844 323.65625 589.1875 324.949219 590.175781 323.945312 C 595.78125 318.785156 599.9375 310.753906 603.664062 304.160156 C 604.238281 303.15625 602.660156 302.296875 602.085938 303.300781 Z M 680.648438 405.226562 C 675.917969 386.304688 673.765625 367.238281 670.753906 348.027344 C 670.613281 347.3125 669.320312 347.453125 669.464844 348.171875 C 670.183594 358.78125 671.171875 369.386719 672.046875 379.996094 C 672.90625 388.882812 673.480469 398.488281 678.066406 406.230469 C 678.925781 407.664062 681.078125 406.804688 680.648438 405.226562 Z M 359.097656 417.125 C 353.222656 421.140625 347.628906 424.148438 342.46875 425.871094 C 342.757812 431.316406 347.1875 435.761719 352.792969 435.761719 C 358.527344 435.761719 363.113281 431.175781 363.113281 425.441406 C 363.113281 422 361.523438 418.988281 359.097656 417.125 "/>
<g clip-path="url(#clip2)" clip-rule="nonzero">
<path style=" stroke:none;fill-rule:nonzero;fill:rgb(23.139954%,33.729553%,44.709778%);fill-opacity:1;" d="M 151.804688 326.953125 C 152.804688 325.949219 151.371094 324.515625 150.222656 325.378906 C 148.503906 326.8125 147.070312 328.386719 145.777344 330.25 C 144.773438 331.828125 143.339844 333.980469 143.773438 335.84375 C 143.917969 336.847656 145.207031 336.988281 145.921875 336.417969 C 147.210938 335.269531 147.503906 333.117188 148.359375 331.683594 C 149.222656 329.964844 150.371094 328.386719 151.804688 326.953125 Z M 75.105469 333.835938 C 76.109375 335.414062 77.542969 337.992188 79.546875 337.851562 C 80.410156 337.851562 80.980469 337.277344 80.980469 336.417969 C 81.125 334.550781 79.117188 333.117188 78.257812 331.683594 C 77.113281 329.964844 76.109375 328.246094 75.390625 326.523438 C 74.53125 324.660156 71.523438 325.949219 72.238281 327.816406 C 72.957031 329.820312 73.8125 331.828125 75.105469 333.835938 Z M 60.195312 430.027344 C 57.472656 432.609375 54.320312 436.046875 53.457031 439.917969 C 53.027344 441.640625 55.324219 442.785156 56.472656 441.210938 C 58.476562 438.199219 59.761719 434.902344 62.34375 432.179688 C 63.640625 430.746094 61.628906 428.738281 60.195312 430.027344 Z M 111.949219 445.078125 C 113.953125 443.359375 114.816406 440.492188 115.964844 438.199219 C 117.25 435.617188 118.539062 432.894531 119.832031 430.3125 C 120.6875 428.738281 118.253906 427.304688 117.398438 428.878906 C 115.964844 431.605469 114.382812 434.328125 112.804688 436.910156 C 111.515625 439.203125 109.796875 441.496094 109.511719 444.078125 C 109.367188 445.367188 111.085938 445.796875 111.949219 445.078125 Z M 160.113281 419.707031 C 159.257812 417.84375 156.105469 419.132812 156.820312 421.140625 C 158.539062 426.15625 160.113281 431.746094 162.695312 436.476562 C 163.84375 438.628906 167.425781 437.195312 166.710938 434.757812 C 165.277344 429.597656 162.410156 424.4375 160.113281 419.707031 Z M 127.71875 396.339844 C 129.4375 394.761719 130.300781 391.75 131.441406 389.746094 C 132.734375 387.308594 134.167969 385.011719 135.742188 382.71875 C 136.605469 381.574219 134.601562 379.996094 133.738281 381.144531 C 132.019531 383.4375 130.300781 385.730469 128.71875 388.167969 C 127.433594 390.316406 125.566406 392.898438 125.566406 395.480469 C 125.566406 396.625 126.855469 397.054688 127.71875 396.339844 Z M 94.746094 403.648438 C 94.167969 402.503906 92.308594 403.363281 92.59375 404.511719 C 93.597656 408.09375 94.167969 412.394531 96.179688 415.546875 C 97.328125 417.414062 99.902344 416.121094 99.617188 414.113281 C 98.898438 410.386719 96.464844 406.945312 94.746094 403.648438 Z M 62.492188 405.371094 C 64.640625 403.9375 65.359375 401.214844 66.507812 399.0625 C 67.792969 396.339844 69.226562 393.613281 70.515625 390.890625 C 71.230469 389.601562 69.226562 388.453125 68.511719 389.746094 C 66.929688 392.324219 65.359375 394.90625 63.925781 397.484375 C 62.628906 399.636719 60.773438 401.785156 60.773438 404.367188 C 60.625 405.226562 61.628906 405.945312 62.492188 405.371094 Z M 157.105469 371.109375 C 155.671875 365.660156 151.941406 360.644531 148.9375 356.054688 C 147.925781 354.621094 145.921875 355.914062 146.640625 357.347656 C 149.074219 362.21875 150.792969 367.8125 153.660156 372.398438 C 154.808594 374.40625 157.675781 373.257812 157.105469 371.109375 Z M 106.785156 351.613281 C 105.066406 354.621094 103.199219 357.488281 101.480469 360.5 C 99.902344 363.082031 97.898438 365.804688 97.179688 368.816406 C 96.894531 370.105469 98.46875 371.109375 99.476562 370.105469 C 101.628906 367.953125 102.914062 364.800781 104.347656 362.078125 C 105.929688 359.066406 107.5 355.914062 109.082031 352.902344 C 109.796875 351.46875 107.648438 350.179688 106.785156 351.613281 Z M 152.804688 227.609375 C 153.660156 229.328125 154.238281 231.480469 155.957031 232.484375 C 156.675781 232.914062 157.824219 232.484375 157.960938 231.621094 C 158.394531 229.617188 157.105469 227.753906 156.105469 226.03125 C 154.957031 224.023438 153.660156 222.019531 152.375 220.15625 C 151.226562 218.578125 148.644531 220.011719 149.652344 221.730469 C 150.792969 223.738281 151.804688 225.601562 152.804688 227.609375 Z M 137.46875 298.285156 C 135.742188 300.863281 133.882812 303.445312 131.871094 305.882812 C 130.4375 307.746094 128.289062 309.464844 128.003906 311.757812 C 127.855469 312.476562 128.867188 313.050781 129.4375 312.90625 C 131.734375 312.1875 133.304688 309.320312 134.601562 307.457031 C 136.457031 304.878906 138.039062 302.296875 139.757812 299.574219 C 140.90625 298.140625 138.46875 296.851562 137.46875 298.285156 Z M 88.726562 300.71875 C 90.011719 302.871094 91.160156 305.59375 93.597656 306.597656 C 94.3125 306.882812 95.175781 306.167969 95.03125 305.449219 C 94.882812 302.871094 92.59375 300.71875 91.300781 298.570312 C 89.582031 295.988281 88.007812 293.265625 86.574219 290.398438 C 85.710938 288.820312 83.5625 290.253906 84.277344 291.832031 C 85.566406 294.84375 87 297.851562 88.726562 300.71875 Z M 123.132812 265.886719 C 125.421875 264.738281 126.421875 261.441406 127.855469 259.433594 C 129.722656 256.851562 131.871094 254.558594 134.308594 252.410156 C 135.316406 251.550781 133.882812 249.6875 132.875 250.546875 C 130.300781 252.554688 127.71875 254.703125 125.566406 257.285156 C 123.847656 259.289062 120.980469 262.300781 121.265625 265.023438 C 121.40625 265.742188 122.269531 266.316406 123.132812 265.886719 Z M 97.179688 230.90625 C 98.898438 230.332031 100.046875 228.753906 101.050781 227.320312 C 102.34375 225.746094 103.484375 224.023438 104.632812 222.304688 C 105.496094 221.15625 103.632812 219.722656 102.628906 220.726562 C 101.195312 222.160156 99.761719 223.738281 98.328125 225.316406 C 97.179688 226.75 95.894531 228.039062 95.601562 229.902344 C 95.601562 230.476562 96.464844 231.050781 97.179688 230.90625 Z M 638.195312 289.394531 C 633.621094 292.835938 628.03125 293.410156 623.011719 295.703125 C 622.296875 295.988281 622.867188 296.992188 623.585938 296.992188 C 626.726562 296.5625 629.75 295.417969 632.761719 294.554688 C 635.195312 293.839844 637.476562 293.121094 639.625 291.832031 C 641.058594 290.828125 639.496094 288.390625 638.195312 289.394531 Z M 313.363281 121.09375 C 316.804688 120.808594 323.398438 120.09375 324.832031 116.078125 C 325.117188 115.359375 324.113281 114.644531 323.527344 115.074219 C 321.964844 116.222656 320.660156 117.085938 318.667969 117.65625 C 316.660156 118.226562 314.796875 118.804688 312.933594 119.660156 C 312.359375 119.953125 312.644531 121.09375 313.363281 121.09375 Z M 315.371094 93.574219 C 317.519531 93 319.941406 92 321.820312 93.71875 C 321.246094 94.148438 320.960938 94.867188 320.660156 95.4375 C 320.386719 96.15625 319.8125 96.726562 319.382812 97.300781 C 319.097656 97.589844 319.671875 98.019531 319.941406 97.875 C 320.660156 97.441406 321.246094 97.015625 321.820312 96.441406 C 322.09375 96.15625 322.539062 95.867188 322.808594 95.582031 C 323.109375 96.871094 322.96875 98.304688 322.808594 99.59375 C 322.679688 101.171875 325.40625 101.316406 325.40625 99.59375 C 325.40625 96.871094 324.832031 93.574219 322.25 92.140625 C 320.242188 90.992188 316.359375 90.707031 314.507812 92.140625 C 313.9375 92.855469 314.652344 93.71875 315.371094 93.574219 Z M 256.148438 231.050781 C 271.203125 228.757812 280.390625 200.230469 264.035156 193.636719 C 263.1875 193.207031 262.601562 194.640625 263.316406 195.214844 C 271.359375 200.375 270.484375 209.835938 266.628906 217.289062 C 263.90625 222.738281 260.175781 225.460938 254.714844 228.042969 C 253.152344 228.902344 254.585938 231.339844 256.148438 231.050781 Z M 254.875 254.5625 C 272.507812 254.417969 283.113281 233.203125 286.554688 218.722656 C 290.140625 203.816406 288.5625 182.3125 271.644531 176.003906 C 270.484375 175.570312 270.070312 177.152344 270.929688 177.867188 C 286.125 187.902344 286.554688 205.105469 281.539062 221.160156 C 279.386719 228.183594 276.21875 234.921875 271.203125 240.515625 C 266.183594 246.105469 260.449219 248.113281 254 251.121094 C 252.148438 251.839844 253.152344 254.5625 254.875 254.5625 Z M 320.242188 330.398438 C 296.015625 330.828125 271.074219 335.414062 247.417969 340.144531 C 244.550781 340.71875 245.699219 345.164062 248.707031 344.589844 C 272.507812 340.003906 296.734375 336.992188 320.53125 332.261719 C 321.535156 331.976562 321.246094 330.398438 320.242188 330.398438 Z M 317.375 141.023438 C 323.828125 140.878906 329.707031 136.722656 335.871094 136.863281 C 337.144531 136.863281 338.019531 135.003906 337.015625 134.144531 C 333.71875 131.277344 330.566406 133.710938 326.980469 134.859375 C 319.097656 137.582031 311.929688 138.011719 304.171875 134.429688 C 303.039062 133.855469 301.605469 135.289062 302.738281 136.292969 C 306.625 139.878906 312.058594 141.164062 317.375 141.023438 Z M 328.703125 205.964844 C 328.542969 204.960938 327.109375 205.390625 327.269531 206.394531 C 329.847656 220.300781 332.285156 234.0625 334.277344 248.113281 C 336.300781 262.015625 337.144531 276.351562 340.3125 289.972656 C 340.601562 291.546875 343.179688 291.261719 343.179688 289.542969 C 342.75 276.066406 339.597656 262.015625 337.144531 248.683594 C 334.578125 234.492188 331.710938 220.15625 328.703125 205.964844 Z M 383.605469 279.363281 C 390.488281 279.9375 398.945312 274.632812 399.375 267.320312 C 399.503906 265.886719 397.355469 265.746094 397.082031 267.035156 C 392.925781 280.222656 374.574219 278.644531 368.554688 268.179688 C 368.269531 267.75 367.40625 267.894531 367.550781 268.46875 C 368.269531 275.347656 377.585938 278.933594 383.605469 279.363281 Z M 443.101562 303.304688 C 438.511719 303.445312 433.78125 304.164062 429.195312 305.023438 C 428.765625 304.019531 428.175781 303.015625 427.761719 302.011719 C 427.042969 300.292969 426.613281 298.429688 426.183594 296.566406 C 426.027344 295.992188 425.035156 296.136719 425.035156 296.710938 C 425.308594 299.433594 425.898438 302.730469 427.042969 305.597656 C 418.011719 307.460938 408.824219 309.898438 399.949219 311.476562 C 384.179688 314.199219 368.410156 316.347656 352.640625 318.070312 C 352.5 314.484375 352.199219 311.042969 351.78125 307.890625 C 351.78125 307.460938 351.066406 307.316406 351.066406 307.746094 C 350.046875 315.34375 348.914062 324.234375 350.046875 331.832031 C 350.203125 332.691406 351.480469 332.546875 351.636719 331.832031 C 352.355469 328.820312 352.640625 325.523438 352.785156 322.082031 C 368.125 320.363281 383.320312 318.210938 398.371094 315.34375 C 412.996094 312.621094 429.910156 310.613281 443.53125 304.308594 C 443.671875 303.878906 443.53125 303.304688 443.101562 303.304688 Z M 681.644531 705.128906 C 684.65625 702.550781 687.523438 698.964844 687.953125 694.808594 C 688.09375 693.949219 686.804688 693.375 686.089844 694.09375 C 683.507812 696.816406 681.5 699.824219 678.632812 701.976562 C 677.058594 703.125 675.464844 703.984375 673.617188 704.699219 C 672.183594 705.273438 671.035156 705.417969 670.320312 706.992188 C 669.890625 707.710938 670.175781 708.570312 670.894531 709 C 674.191406 711.152344 679.207031 707.136719 681.644531 705.128906 Z M 544.597656 721.757812 C 551.191406 725.773438 561.367188 726.632812 567.675781 721.328125 C 568.824219 720.324219 567.53125 718.75 566.242188 719.035156 C 559.074219 720.757812 553.613281 721.472656 547.03125 717.746094 C 544.296875 716.167969 542.015625 720.039062 544.597656 721.757812 Z M 623.140625 471.171875 C 621.863281 471.460938 621.292969 472.75 621.148438 473.898438 C 620.992188 474.757812 621.707031 475.1875 622.425781 475.332031 C 622.726562 475.761719 623.296875 476.046875 623.859375 476.046875 C 624.574219 476.046875 625.59375 475.472656 625.734375 474.613281 C 625.878906 473.753906 625.878906 473.179688 625.734375 472.320312 C 625.292969 471.460938 624.160156 470.886719 623.140625 471.171875 Z M 625.292969 457.125 C 624.015625 457.125 623.011719 458.988281 624.160156 459.847656 L 624.300781 459.992188 C 624.875 460.566406 625.734375 460.566406 626.308594 459.992188 L 626.453125 459.847656 C 627.441406 458.84375 626.597656 457.125 625.292969 457.125 Z M 679.925781 465.4375 C 676.339844 462.285156 671.035156 460.996094 666.863281 458.269531 C 662.003906 455.117188 657.546875 451.246094 653.691406 446.945312 C 653.117188 446.230469 651.8125 447.234375 652.398438 447.949219 C 655.554688 452.679688 659.28125 456.835938 663.867188 460.277344 C 667.882812 463.289062 673.761719 467.734375 679.050781 467.589844 C 680.066406 467.734375 680.929688 466.300781 679.925781 465.4375 Z M 606.8125 452.539062 C 607.242188 451.675781 606.097656 451.105469 605.664062 451.820312 C 601.636719 457.699219 598.054688 463.71875 592.765625 468.449219 C 586.886719 473.753906 579.417969 476.90625 572.121094 479.632812 C 570.257812 480.347656 571.117188 483.359375 572.964844 482.640625 C 588.019531 476.621094 599.488281 467.304688 606.8125 452.539062 Z M 623.585938 499.558594 C 621.292969 498.839844 618.839844 498.839844 616.5625 498.269531 C 616.417969 498.125 616.132812 498.125 615.972656 498.125 C 615.84375 498.125 615.699219 497.980469 615.558594 497.980469 C 612.691406 496.835938 610.398438 494.96875 608.089844 492.820312 C 607.371094 492.101562 605.9375 493.105469 606.527344 493.96875 C 608.246094 496.402344 611.113281 498.984375 614.410156 500.703125 C 608.964844 514.753906 604.089844 528.945312 599.070312 542.996094 C 594.628906 555.324219 587.460938 568.941406 591.332031 582.273438 C 591.902344 584.425781 595.058594 583.5625 594.769531 581.269531 C 592.191406 567.078125 599.789062 551.738281 604.089844 538.550781 C 608.089844 526.222656 612.390625 513.894531 616.128906 501.421875 C 618.710938 502.425781 621.292969 502.710938 623.730469 501.996094 C 624.730469 501.566406 624.730469 499.84375 623.585938 499.558594 Z M 421.167969 388.457031 C 410.128906 390.320312 398.945312 389.605469 388.035156 391.039062 C 387.191406 391.179688 387.191406 392.613281 388.035156 392.757812 C 398.945312 395.050781 411.417969 394.621094 422.3125 392.472656 C 424.894531 392.039062 423.746094 388.027344 421.167969 388.457031 Z M 381.457031 242.519531 C 383.464844 246.246094 389.054688 247.96875 392.78125 249.402344 C 393.054688 249.546875 393.355469 248.972656 393.054688 248.828125 C 391.203125 247.679688 389.339844 246.679688 387.476562 245.53125 C 385.613281 244.382812 384.179688 242.808594 382.460938 241.515625 C 381.742188 241.085938 381.171875 241.945312 381.457031 242.519531 Z M 378.589844 232.914062 C 378.589844 232.054688 378.71875 231.195312 379.019531 230.480469 C 379.433594 230.910156 379.878906 231.050781 380.453125 231.339844 C 380.867188 231.625 381.171875 231.769531 381.742188 231.769531 C 382.03125 231.769531 382.171875 231.339844 382.171875 231.195312 C 382.03125 230.765625 381.742188 230.480469 381.3125 230.191406 C 380.867188 229.90625 380.597656 229.476562 380.152344 229.1875 C 381.027344 228.613281 382.300781 227.898438 383.175781 228.328125 C 383.734375 228.613281 384.324219 228.042969 384.035156 227.46875 C 383.175781 225.890625 380.308594 227.039062 379.304688 227.753906 C 377.730469 228.902344 376.566406 231.050781 376.871094 233.203125 C 377.011719 234.207031 378.589844 233.917969 378.589844 232.914062 Z M 86.714844 599.332031 C 84.710938 598.617188 81.699219 597.328125 78.398438 594.746094 L 62.632812 594.746094 L 59.625 608.363281 C 72.957031 608.652344 86.285156 608.9375 99.480469 609.226562 C 99.332031 607.503906 98.902344 605.066406 97.183594 603.203125 C 94.886719 600.625 91.734375 601.054688 86.714844 599.332031 Z M 130.15625 598.472656 C 128.152344 597.757812 125.421875 596.753906 122.125 594.746094 L 107.503906 594.746094 C 107.363281 598.761719 107.070312 602.917969 106.933594 606.929688 C 117.683594 607.074219 128.289062 607.074219 139.042969 607.21875 C 139.472656 605.785156 139.757812 603.777344 138.757812 602.058594 C 137.46875 599.90625 134.601562 599.90625 130.15625 598.472656 Z M 706.875 707.710938 C 703.578125 705.558594 700.140625 705.847656 699.121094 705.992188 C 692.253906 723.480469 687.523438 731.9375 684.785156 731.363281 C 683.652344 731.078125 682.9375 729.359375 682.636719 726.203125 C 679.925781 731.652344 677.34375 735.808594 675.46875 738.675781 C 673.316406 741.972656 671.882812 743.691406 671.882812 746.273438 C 672.042969 750 675.195312 752.867188 677.203125 754.445312 C 688.371094 740.109375 699.421875 725.917969 710.589844 711.582031 C 709.871094 710.578125 708.882812 709 706.875 707.710938 Z M 563.949219 736.667969 C 565.527344 741.6875 567.234375 746.558594 568.824219 751.578125 C 552.625 755.734375 536.410156 759.890625 520.226562 764.050781 C 520.082031 762.1875 520.082031 759.75 521.230469 757.3125 C 523.511719 751.863281 529.6875 748.566406 537 748.421875 C 538.5625 748.996094 540.152344 749.285156 541.429688 749.425781 C 553.34375 750.429688 562.515625 738.675781 563.949219 736.667969 "/>
</g>
</g>
</svg>
