<?xml version="1.0" encoding="UTF-8"?>
<svg xmlns="http://www.w3.org/2000/svg" xmlns:xlink="http://www.w3.org/1999/xlink" width="810pt" height="809.999993pt" viewBox="0 0 810 809.999993" version="1.2">
<defs>
<clipPath id="clip1">
  <path d="M 0 97.199219 L 810 97.199219 L 810 712.949219 L 0 712.949219 Z M 0 97.199219 "/>
</clipPath>
</defs>
<g id="surface1">
<g clip-path="url(#clip1)" clip-rule="nonzero">
<path style=" stroke:none;fill-rule:nonzero;fill:rgb(21.179199%,21.179199%,21.179199%);fill-opacity:1;" d="M 433.144531 401.710938 C 417.109375 415.929688 392.917969 415.929688 376.886719 401.71875 L 101.484375 157.445312 L 708.542969 157.445312 Z M 540.570312 424.558594 L 499.554688 468.304688 L 696.253906 652.832031 L 111.542969 652.832031 L 298.234375 467.546875 L 256.015625 424.964844 L 59.988281 619.519531 L 59.988281 200.789062 L 337.097656 446.582031 C 355.824219 463.195312 379.949219 472.34375 405.011719 472.34375 C 430.085938 472.34375 454.203125 463.195312 472.929688 446.582031 L 750.054688 200.777344 L 750.054688 621.078125 Z M 720.476562 97.472656 L 89.554688 97.472656 C 40.1875 97.472656 0.03125 137.648438 0.03125 187.027344 L 0.03125 623.257812 C 0.03125 672.632812 40.1875 712.804688 89.554688 712.804688 L 720.476562 712.804688 C 769.84375 712.804688 810.011719 672.632812 810.011719 623.257812 L 810.011719 187.027344 C 810.011719 137.648438 769.84375 97.472656 720.476562 97.472656 "/>
</g>
</g>
</svg>
