<?xml version="1.0" encoding="UTF-8"?>
<svg xmlns="http://www.w3.org/2000/svg" xmlns:xlink="http://www.w3.org/1999/xlink" width="810pt" height="809.999993pt" viewBox="0 0 810 809.999993" version="1.2">
<defs>
<clipPath id="clip1">
  <path d="M 226 31 L 601.058594 31 L 601.058594 541 L 226 541 Z M 226 31 "/>
</clipPath>
<clipPath id="clip2">
  <path d="M 208.351562 205 L 236 205 L 236 311 L 208.351562 311 Z M 208.351562 205 "/>
</clipPath>
</defs>
<g id="surface1">
<path style=" stroke:none;fill-rule:nonzero;fill:rgb(18.03894%,6.269836%,6.269836%);fill-opacity:1;" d="M 555.414062 520.339844 L 252.679688 520.339844 L 252.679688 268.152344 L 555.414062 268.152344 L 555.414062 520.339844 "/>
<path style=" stroke:none;fill-rule:nonzero;fill:rgb(80.778503%,54.508972%,36.468506%);fill-opacity:1;" d="M 481.453125 484.0625 L 422.265625 469.871094 L 369.511719 469.871094 L 315.472656 484.878906 L 284 493.214844 L 304.445312 578.9375 L 311.433594 704.472656 L 484.53125 704.472656 L 500.277344 580.550781 L 518.945312 493.496094 L 481.453125 484.0625 "/>
<path style=" stroke:none;fill-rule:nonzero;fill:rgb(93.328857%,11.759949%,59.999084%);fill-opacity:1;" d="M 304.347656 573.691406 L 304.445312 574.09375 L 311.433594 704.472656 L 484.53125 704.472656 L 500.277344 575.753906 L 500.714844 573.691406 L 304.347656 573.691406 "/>
<path style=" stroke:none;fill-rule:nonzero;fill:rgb(80.778503%,54.508972%,36.468506%);fill-opacity:1;" d="M 544.414062 294.730469 C 544.414062 337.730469 446.28125 443.277344 395.941406 443.277344 L 393.414062 443.277344 C 338.761719 443.277344 242.417969 346.847656 242.417969 294.730469 L 242.417969 204.113281 C 242.417969 118.585938 310.015625 49.238281 393.414062 49.238281 C 476.8125 49.238281 544.414062 118.585938 544.414062 204.113281 L 544.414062 294.730469 "/>
<path style=" stroke:none;fill-rule:nonzero;fill:rgb(39.219666%,15.689087%,16.859436%);fill-opacity:1;" d="M 321.027344 278.742188 C 321.027344 289.238281 315.359375 297.757812 308.371094 297.757812 C 301.390625 297.757812 295.722656 289.238281 295.722656 278.742188 C 295.722656 268.257812 301.390625 259.742188 308.371094 259.742188 C 315.359375 259.742188 321.027344 268.257812 321.027344 278.742188 "/>
<path style=" stroke:none;fill-rule:nonzero;fill:rgb(39.219666%,15.689087%,16.859436%);fill-opacity:1;" d="M 478.089844 278.742188 C 478.089844 289.238281 472.429688 297.757812 465.449219 297.757812 C 458.445312 297.757812 452.796875 289.238281 452.796875 278.742188 C 452.796875 268.257812 458.445312 259.742188 465.449219 259.742188 C 472.429688 259.742188 478.089844 268.257812 478.089844 278.742188 "/>
<path style=" stroke:none;fill-rule:nonzero;fill:rgb(67.449951%,37.649536%,24.308777%);fill-opacity:1;" d="M 383.867188 336.902344 L 398.394531 267.78125 L 404.574219 269.097656 L 391.691406 330.464844 L 406.132812 330.3125 L 406.203125 336.636719 L 383.867188 336.902344 "/>
<path style=" stroke:none;fill-rule:nonzero;fill:rgb(80.778503%,41.958618%,34.899902%);fill-opacity:1;" d="M 344.464844 330.894531 C 344.464844 340.242188 328.746094 347.828125 309.332031 347.828125 C 289.925781 347.828125 274.195312 340.242188 274.195312 330.894531 C 274.195312 321.558594 289.925781 313.972656 309.332031 313.972656 C 328.746094 313.972656 344.464844 321.558594 344.464844 330.894531 "/>
<path style=" stroke:none;fill-rule:nonzero;fill:rgb(80.778503%,41.958618%,34.899902%);fill-opacity:1;" d="M 511.515625 330.894531 C 511.515625 340.242188 495.789062 347.828125 476.375 347.828125 C 456.976562 347.828125 441.25 340.242188 441.25 330.894531 C 441.25 321.558594 456.976562 313.972656 476.375 313.972656 C 495.789062 313.972656 511.515625 321.558594 511.515625 330.894531 "/>
<path style=" stroke:none;fill-rule:nonzero;fill:rgb(39.219666%,15.689087%,16.859436%);fill-opacity:1;" d="M 489.742188 246.699219 C 481.011719 243.003906 472.878906 240.445312 464.542969 240.15625 C 456.210938 239.695312 448.09375 241.875 439.039062 244.941406 C 441.925781 241.089844 445.851562 238.089844 450.3125 236.019531 C 454.777344 233.929688 459.835938 233.003906 464.835938 233.160156 C 469.832031 233.453125 474.761719 234.730469 479.058594 237.113281 C 483.335938 239.421875 487.179688 242.589844 489.742188 246.699219 "/>
<path style=" stroke:none;fill-rule:nonzero;fill:rgb(39.219666%,15.689087%,16.859436%);fill-opacity:1;" d="M 338.039062 246.699219 C 329.316406 243.003906 321.175781 240.445312 312.84375 240.15625 C 304.5 239.695312 296.394531 241.875 287.34375 244.941406 C 290.214844 241.089844 294.148438 238.089844 298.609375 236.019531 C 303.0625 233.929688 308.132812 233.003906 313.132812 233.160156 C 318.132812 233.453125 323.050781 234.730469 327.355469 237.113281 C 331.632812 239.421875 335.476562 242.589844 338.039062 246.699219 "/>
<path style=" stroke:none;fill-rule:nonzero;fill:rgb(71.759033%,48.239136%,32.159424%);fill-opacity:1;" d="M 401.890625 404.441406 C 370.894531 415.640625 353.34375 386.40625 347.941406 376.910156 C 354.101562 378.089844 376.703125 381.820312 389.488281 375.59375 C 409.519531 373.25 426.921875 355.4375 429.957031 352.164062 C 429.816406 352.605469 429.675781 353.046875 429.667969 353.574219 C 429.296875 364.953125 428.054688 394.996094 401.890625 404.441406 Z M 431.9375 349.253906 L 431.917969 349.132812 C 423.8125 354.792969 411.617188 362.121094 401.554688 364.378906 C 390.765625 366.792969 388.996094 373.089844 388.996094 373.089844 C 388.996094 373.089844 383.855469 369.953125 375.46875 370.914062 C 367.636719 371.8125 355.351562 374.898438 344.878906 374.863281 L 344.746094 375.121094 L 344.640625 375.121094 C 361.625 427.535156 400.808594 415.382812 400.808594 415.382812 C 400.808594 415.382812 442.507812 409.265625 431.9375 349.253906 "/>
<path style=" stroke:none;fill-rule:nonzero;fill:rgb(65.489197%,9.799194%,19.999695%);fill-opacity:1;" d="M 346.304688 376.574219 C 346.304688 376.574219 369.246094 380.972656 393.433594 374.714844 C 406.644531 371.292969 419.710938 363.410156 430.476562 351.601562 C 430.476562 351.601562 440.234375 397.828125 402.53125 409.300781 C 363.296875 421.230469 346.304688 376.574219 346.304688 376.574219 "/>
<path style=" stroke:none;fill-rule:nonzero;fill:rgb(100%,100%,100%);fill-opacity:1;" d="M 397.058594 386.855469 C 409.6875 382.058594 412.882812 381.019531 424.929688 372.78125 C 432.921875 367.296875 430.476562 351.601562 430.476562 351.601562 C 419.703125 363.410156 406.644531 371.292969 393.433594 374.714844 C 369.246094 380.972656 346.304688 376.574219 346.304688 376.574219 C 346.304688 376.574219 351.9375 386.433594 360.101562 389.203125 C 366.210938 391.300781 378.09375 394.0625 397.058594 386.855469 "/>
<path style=" stroke:none;fill-rule:nonzero;fill:rgb(95.289612%,37.649536%,50.588989%);fill-opacity:1;" d="M 402.558594 409.378906 C 411.449219 406.664062 417.636719 402.007812 422 396.503906 C 417.820312 391.714844 408.332031 389.960938 398.253906 392.625 C 386.988281 395.621094 379.121094 403.089844 379.378906 409.96875 C 386.023438 411.863281 393.722656 412.066406 402.558594 409.378906 "/>
<path style=" stroke:none;fill-rule:nonzero;fill:rgb(93.328857%,11.759949%,59.999084%);fill-opacity:1;" d="M 508.917969 809.5625 C 497.195312 757.710938 488.078125 714.757812 485.746094 696.933594 L 310.632812 696.933594 C 308.140625 714.773438 299.121094 757.71875 287.601562 809.5625 L 508.917969 809.5625 "/>
<path style=" stroke:none;fill-rule:nonzero;fill:rgb(80.778503%,54.508972%,36.468506%);fill-opacity:1;" d="M 369.882812 485.152344 L 423.742188 485.152344 C 421.886719 460.171875 416.429688 435.226562 419.511719 410.261719 C 404.082031 402.464844 388.664062 402.464844 373.234375 410.261719 C 376.324219 435.226562 371.753906 460.171875 369.882812 485.152344 "/>
<path style=" stroke:none;fill-rule:nonzero;fill:rgb(80.778503%,54.508972%,36.468506%);fill-opacity:1;" d="M 551.964844 632.851562 C 548.222656 585.074219 537.679688 544.007812 532.726562 517.992188 C 530.164062 504.511719 527.277344 494.261719 520.210938 493.074219 C 519.355469 492.921875 518.484375 492.96875 517.625 493.082031 C 517.332031 493.054688 517.042969 492.992188 516.753906 493.011719 C 515.792969 493.089844 514.867188 493.539062 513.980469 494.261719 C 505.792969 498.558594 497.960938 513.109375 494.890625 531.335938 C 491.730469 550.09375 495.613281 555.171875 502.34375 561.539062 C 502.210938 580.710938 506.558594 613.988281 508.347656 636.714844 C 511.789062 680.65625 509.09375 683.382812 516.46875 708.953125 L 557.113281 705.753906 C 560.414062 679.332031 555.414062 676.785156 551.964844 632.851562 "/>
<path style=" stroke:none;fill-rule:nonzero;fill:rgb(80.778503%,54.508972%,36.468506%);fill-opacity:1;" d="M 555.414062 809.5625 C 556.304688 772.585938 558.6875 714.035156 557 693.769531 L 514.417969 693.769531 C 512.773438 713.636719 512.675781 771.953125 514.207031 809.5625 L 555.414062 809.5625 "/>
<path style=" stroke:none;fill-rule:nonzero;fill:rgb(80.778503%,54.508972%,36.468506%);fill-opacity:1;" d="M 253.355469 632.851562 C 257.097656 585.074219 267.65625 544.007812 272.59375 517.992188 C 275.164062 504.511719 278.050781 494.261719 285.109375 493.074219 C 285.972656 492.921875 286.835938 492.96875 287.714844 493.082031 C 287.996094 493.054688 288.277344 492.992188 288.570312 493.011719 C 289.546875 493.089844 290.460938 493.539062 291.351562 494.261719 C 299.527344 498.558594 307.367188 513.109375 310.4375 531.335938 C 313.609375 550.09375 312.253906 551.785156 305.519531 558.152344 C 305.644531 577.324219 298.917969 613.917969 297.148438 636.644531 C 293.699219 680.566406 296.226562 683.382812 288.859375 708.953125 L 248.214844 705.753906 C 244.914062 679.332031 249.914062 676.785156 253.355469 632.851562 "/>
<path style=" stroke:none;fill-rule:nonzero;fill:rgb(80.778503%,54.508972%,36.468506%);fill-opacity:1;" d="M 288.726562 809.5625 C 290.53125 772.015625 292.554688 713.691406 290.902344 693.769531 L 248.320312 693.769531 C 246.640625 714.035156 249.015625 772.585938 249.914062 809.5625 L 288.726562 809.5625 "/>
<path style=" stroke:none;fill-rule:nonzero;fill:rgb(93.328857%,11.759949%,59.999084%);fill-opacity:1;" d="M 483.113281 580.957031 L 470.371094 578.550781 L 481.308594 481.195312 L 493.921875 485.4375 L 483.113281 580.957031 "/>
<path style=" stroke:none;fill-rule:nonzero;fill:rgb(93.328857%,11.759949%,59.999084%);fill-opacity:1;" d="M 322.875 580.957031 L 335.617188 578.550781 L 324.679688 481.195312 L 312.066406 485.4375 L 322.875 580.957031 "/>
<g clip-path="url(#clip1)" clip-rule="nonzero">
<path style=" stroke:none;fill-rule:nonzero;fill:rgb(24.708557%,9.408569%,9.408569%);fill-opacity:1;" d="M 601.214844 499.121094 C 573.78125 489.296875 574.757812 369.265625 574.757812 232.808594 C 574.757812 121.875 506.585938 73.03125 470.441406 54.917969 C 441.910156 37.667969 411.070312 31.082031 386.410156 31.082031 C 316.046875 31.082031 274.679688 77.15625 272.261719 101.929688 C 264.9375 100.109375 227.226562 93.117188 227.226562 140.535156 C 227.226562 271.195312 226.722656 372.078125 226.722656 426.355469 C 226.722656 503.019531 239.210938 539.359375 290.644531 539.359375 C 290.644531 539.359375 269.101562 490.101562 269.101562 446.898438 C 269.101562 369.148438 269.101562 299.90625 269.101562 220.023438 C 269.101562 191.566406 281.316406 155.109375 294.015625 148.628906 C 345.90625 221.140625 447.363281 231.300781 512.84375 232.128906 C 515.984375 281.511719 506.675781 419.609375 506.675781 419.609375 C 506.675781 516.785156 587 540.355469 587 540.355469 C 556.152344 503.539062 556.628906 467.710938 556.628906 467.710938 C 568.394531 499.121094 601.214844 499.121094 601.214844 499.121094 "/>
</g>
<path style=" stroke:none;fill-rule:nonzero;fill:rgb(97.24884%,62.348938%,65.879822%);fill-opacity:1;" d="M 553.523438 282.570312 L 537.960938 282.570312 L 537.960938 187.542969 C 537.960938 110.164062 475.160156 47.246094 397.957031 47.246094 C 320.746094 47.246094 257.941406 110.164062 257.941406 187.542969 L 257.941406 282.570312 L 242.382812 282.570312 L 242.382812 187.542969 C 242.382812 101.59375 312.171875 31.664062 397.957031 31.664062 C 483.722656 31.664062 553.523438 101.59375 553.523438 187.542969 L 553.523438 282.570312 "/>
<path style=" stroke:none;fill-rule:nonzero;fill:rgb(98.429871%,79.219055%,78.42865%);fill-opacity:1;" d="M 264.164062 170.417969 C 280.648438 13.628906 515.871094 13.628906 532.339844 170.417969 L 562.03125 170.417969 C 545.335938 -25.8125 251.171875 -25.8125 234.46875 170.417969 L 264.164062 170.417969 "/>
<path style=" stroke:none;fill-rule:nonzero;fill:rgb(97.24884%,62.348938%,65.879822%);fill-opacity:1;" d="M 558.441406 205.710938 L 558.441406 310.570312 C 573.289062 309.730469 585.199219 286.609375 585.199219 258.136719 C 585.199219 229.679688 573.289062 206.558594 558.441406 205.710938 "/>
<path style=" stroke:none;fill-rule:nonzero;fill:rgb(98.429871%,79.219055%,78.42865%);fill-opacity:1;" d="M 561.515625 305.613281 C 561.515625 314.574219 554.269531 321.8125 545.347656 321.8125 C 536.414062 321.8125 529.179688 314.574219 529.179688 305.613281 L 529.179688 210.648438 C 529.179688 201.699219 536.414062 194.457031 545.347656 194.457031 C 554.269531 194.457031 561.515625 201.699219 561.515625 210.648438 L 561.515625 305.613281 "/>
<g clip-path="url(#clip2)" clip-rule="nonzero">
<path style=" stroke:none;fill-rule:nonzero;fill:rgb(97.24884%,62.348938%,65.879822%);fill-opacity:1;" d="M 235.191406 205.710938 L 235.191406 310.570312 C 220.335938 309.730469 208.417969 286.609375 208.417969 258.136719 C 208.417969 229.679688 220.335938 206.558594 235.191406 205.710938 "/>
</g>
<path style=" stroke:none;fill-rule:nonzero;fill:rgb(98.429871%,79.219055%,78.42865%);fill-opacity:1;" d="M 232.109375 305.613281 C 232.109375 314.574219 239.355469 321.8125 248.277344 321.8125 C 257.210938 321.8125 264.453125 314.574219 264.453125 305.613281 L 264.453125 210.648438 C 264.453125 201.699219 257.210938 194.457031 248.277344 194.457031 C 239.355469 194.457031 232.109375 201.699219 232.109375 210.648438 L 232.109375 305.613281 "/>
</g>
</svg>
