<?xml version="1.0" encoding="UTF-8"?>
<svg xmlns="http://www.w3.org/2000/svg" xmlns:xlink="http://www.w3.org/1999/xlink" width="375pt" height="374.999991pt" viewBox="0 0 375 374.999991" version="1.2">
<g id="surface1">
<path style=" stroke:none;fill-rule:nonzero;fill:rgb(100%,100%,100%);fill-opacity:1;" d="M 164.0625 351.484375 C 164.0625 351.5 164.0625 351.53125 164.0625 351.5625 C 164.0625 364.5 174.5625 375 187.5 375 C 200.421875 375 210.890625 364.546875 210.9375 351.640625 L 210.9375 326.015625 C 210.9375 313.203125 200.46875 302.578125 187.5 302.578125 L 187.5 302.421875 C 174.53125 302.421875 164.0625 312.890625 164.0625 325.859375 Z M 164.0625 351.484375 "/>
<path style=" stroke:none;fill-rule:nonzero;fill:rgb(100%,100%,100%);fill-opacity:1;" d="M 164.0625 255.578125 C 164.0625 268.515625 174.5625 279.015625 187.5 279.015625 C 200.4375 279.015625 210.9375 268.515625 210.9375 255.578125 L 210.9375 119.34375 C 210.9375 106.375 200.46875 95.90625 187.5 95.90625 L 187.5 95.75 C 174.53125 95.75 164.0625 106.375 164.0625 119.1875 Z M 164.0625 255.578125 "/>
<path style=" stroke:none;fill-rule:nonzero;fill:rgb(100%,100%,100%);fill-opacity:1;" d="M 294.0625 193.703125 C 294.0625 180.734375 283.59375 170.265625 270.625 170.265625 C 257.65625 170.265625 247.1875 180.890625 247.1875 193.703125 L 247.1875 276.96875 C 247.1875 289.90625 257.6875 300.40625 270.625 300.40625 C 283.5625 300.40625 294.0625 289.90625 294.0625 276.96875 Z M 294.0625 193.703125 "/>
<path style=" stroke:none;fill-rule:nonzero;fill:rgb(100%,100%,100%);fill-opacity:1;" d="M 80.9375 276.8125 C 80.9375 289.75 91.4375 300.25 104.375 300.25 C 117.3125 300.25 127.8125 289.75 127.8125 276.8125 L 127.8125 251.5 C 127.8125 238.53125 117.34375 228.0625 104.375 228.0625 L 104.375 227.90625 C 91.40625 227.90625 80.9375 238.375 80.9375 251.34375 Z M 80.9375 276.8125 "/>
<path style=" stroke:none;fill-rule:nonzero;fill:rgb(100%,100%,100%);fill-opacity:1;" d="M 187.5 72.328125 C 200.4375 72.328125 210.9375 61.828125 210.9375 48.890625 L 210.9375 23.4375 C 210.9375 10.46875 200.46875 0 187.5 0 C 174.53125 0 164.0625 10.46875 164.0625 23.4375 L 164.0625 48.90625 C 164.0625 61.828125 174.5625 72.328125 187.5 72.328125 Z M 187.5 72.328125 "/>
<path style=" stroke:none;fill-rule:nonzero;fill:rgb(100%,100%,100%);fill-opacity:1;" d="M 104.375 205.109375 C 117.3125 205.109375 127.8125 194.609375 127.8125 181.671875 L 127.8125 97.796875 C 127.8125 84.828125 117.34375 74.359375 104.375 74.359375 L 104.375 74.515625 C 91.40625 74.515625 80.9375 84.984375 80.9375 97.953125 L 80.9375 181.6875 C 80.9375 194.609375 91.4375 205.109375 104.375 205.109375 Z M 104.375 205.109375 "/>
<path style=" stroke:none;fill-rule:nonzero;fill:rgb(100%,100%,100%);fill-opacity:1;" d="M 294.0625 97.953125 C 294.0625 84.984375 283.59375 74.515625 270.625 74.515625 C 257.65625 74.515625 247.1875 84.984375 247.1875 97.953125 L 247.1875 123.578125 C 247.1875 136.515625 257.6875 147.015625 270.625 147.015625 C 283.5625 147.015625 294.0625 136.515625 294.0625 123.578125 Z M 294.0625 97.953125 "/>
<path style=" stroke:none;fill-rule:nonzero;fill:rgb(100%,100%,100%);fill-opacity:1;" d="M 351.5625 151.21875 C 338.59375 151.21875 328.125 161.6875 328.125 174.65625 L 328.125 200.125 C 328.125 213.0625 338.625 223.5625 351.5625 223.5625 C 364.5 223.5625 375 213.0625 375 200.125 L 375 174.65625 C 375 161.6875 364.53125 151.21875 351.5625 151.21875 Z M 351.5625 151.21875 "/>
<path style=" stroke:none;fill-rule:nonzero;fill:rgb(100%,100%,100%);fill-opacity:1;" d="M 23.4375 223.546875 C 36.375 223.546875 46.875 213.046875 46.875 200.109375 L 46.875 174.640625 C 46.875 161.671875 36.40625 151.203125 23.4375 151.203125 C 10.46875 151.203125 0 161.671875 0 174.640625 L 0 200.109375 C 0 213.046875 10.5 223.546875 23.4375 223.546875 Z M 23.4375 223.546875 "/>
</g>
</svg>
