<?xml version="1.0" encoding="UTF-8"?>
<svg xmlns="http://www.w3.org/2000/svg" xmlns:xlink="http://www.w3.org/1999/xlink" width="375pt" height="374.999991pt" viewBox="0 0 375 374.999991" version="1.2">
<defs>
<clipPath id="clip1">
  <path d="M 0 0.488281 L 375 0.488281 L 375 375 L 0 375 Z M 0 0.488281 "/>
</clipPath>
</defs>
<g id="surface1">
<g clip-path="url(#clip1)" clip-rule="nonzero">
<path style=" stroke:none;fill-rule:nonzero;fill:rgb(100%,100%,100%);fill-opacity:1;" d="M 187.417969 34.296875 C 237.457031 34.296875 243.371094 34.460938 263.171875 35.367188 C 281.414062 36.1875 291.355469 39.226562 298.011719 41.855469 C 306.722656 45.226562 312.964844 49.332031 319.539062 55.90625 C 326.113281 62.480469 330.136719 68.726562 333.589844 77.433594 C 336.136719 84.007812 339.175781 93.949219 340.078125 112.273438 C 340.984375 132.074219 341.148438 137.988281 341.148438 188.027344 C 341.148438 238.066406 340.984375 243.980469 340.078125 263.785156 C 339.257812 282.023438 336.21875 291.964844 333.589844 298.621094 C 330.21875 307.332031 326.113281 313.574219 319.539062 320.148438 C 312.964844 326.722656 306.722656 330.75 298.011719 334.199219 C 291.4375 336.746094 281.496094 339.785156 263.171875 340.691406 C 243.371094 341.59375 237.457031 341.757812 187.417969 341.757812 C 137.378906 341.757812 131.464844 341.59375 111.660156 340.691406 C 93.421875 339.867188 83.480469 336.828125 76.824219 334.199219 C 68.113281 330.832031 61.871094 326.722656 55.296875 320.148438 C 48.722656 313.574219 44.699219 307.332031 41.246094 298.621094 C 38.699219 292.046875 35.660156 282.105469 34.753906 263.785156 C 33.851562 243.980469 33.6875 238.066406 33.6875 188.027344 C 33.6875 137.988281 33.851562 132.074219 34.753906 112.273438 C 35.578125 94.03125 38.617188 84.089844 41.246094 77.433594 C 44.617188 68.726562 48.722656 62.480469 55.296875 55.90625 C 61.871094 49.332031 68.113281 45.308594 76.824219 41.855469 C 83.398438 39.308594 93.339844 36.269531 111.660156 35.367188 C 131.464844 34.460938 137.378906 34.296875 187.417969 34.296875 M 187.417969 0.527344 C 136.476562 0.527344 130.148438 0.773438 110.101562 1.679688 C 90.132812 2.582031 76.496094 5.785156 64.582031 10.386719 C 52.257812 15.152344 41.820312 21.5625 31.386719 31.996094 C 21.035156 42.433594 14.625 52.867188 9.859375 65.191406 C 5.257812 77.105469 2.054688 90.746094 1.148438 110.710938 C 0.246094 130.675781 0 137.085938 0 187.945312 C 0 238.886719 0.246094 245.214844 1.148438 265.261719 C 2.054688 285.230469 5.257812 298.867188 9.859375 310.78125 C 14.625 323.105469 21.035156 333.542969 31.46875 343.976562 C 41.902344 354.410156 52.339844 360.820312 64.664062 365.585938 C 76.578125 370.1875 90.21875 373.390625 110.183594 374.296875 C 130.148438 375.199219 136.558594 375.445312 187.5 375.445312 C 238.441406 375.445312 244.769531 375.199219 264.816406 374.296875 C 284.78125 373.390625 298.421875 370.1875 310.335938 365.585938 C 322.660156 360.820312 333.097656 354.410156 343.53125 343.976562 C 353.964844 333.542969 360.375 323.105469 365.140625 310.78125 C 369.742188 298.867188 372.945312 285.230469 373.851562 265.261719 C 374.753906 245.296875 375 238.886719 375 187.945312 C 375 137.003906 374.753906 130.675781 373.851562 110.628906 C 372.945312 90.664062 369.742188 77.023438 365.140625 65.109375 C 360.375 52.785156 353.964844 42.351562 343.53125 31.914062 C 333.097656 21.480469 322.660156 15.070312 310.335938 10.304688 C 298.421875 5.703125 284.78125 2.5 264.816406 1.597656 C 244.769531 0.773438 238.359375 0.527344 187.417969 0.527344 "/>
</g>
<path style=" stroke:none;fill-rule:nonzero;fill:rgb(100%,100%,100%);fill-opacity:1;" d="M 187.417969 91.730469 C 134.257812 91.730469 91.203125 134.785156 91.203125 187.945312 C 91.203125 241.105469 134.339844 284.242188 187.5 284.242188 C 240.660156 284.242188 283.796875 241.1875 283.796875 187.945312 C 283.714844 134.785156 240.578125 91.730469 187.417969 91.730469 M 187.417969 250.472656 C 152.910156 250.472656 124.972656 222.539062 124.972656 188.027344 C 124.972656 153.519531 152.910156 125.582031 187.417969 125.582031 C 221.925781 125.582031 249.863281 153.519531 249.863281 188.027344 C 249.945312 222.457031 221.925781 250.472656 187.417969 250.472656 "/>
<path style=" stroke:none;fill-rule:nonzero;fill:rgb(100%,100%,100%);fill-opacity:1;" d="M 310.007812 87.953125 C 310.007812 100.359375 299.902344 110.464844 287.496094 110.464844 C 275.085938 110.464844 264.980469 100.359375 264.980469 87.953125 C 264.980469 75.542969 275.085938 65.4375 287.496094 65.4375 C 299.902344 65.4375 310.007812 75.460938 310.007812 87.953125 "/>
</g>
</svg>
