<?xml version="1.0" encoding="UTF-8"?>
<svg xmlns="http://www.w3.org/2000/svg" xmlns:xlink="http://www.w3.org/1999/xlink" width="810pt" height="809.999993pt" viewBox="0 0 810 809.999993" version="1.2">
<defs>
<clipPath id="clip1">
  <path d="M 126 165.042969 L 383.890625 165.042969 L 383.890625 584.292969 L 126 584.292969 Z M 126 165.042969 "/>
</clipPath>
<clipPath id="clip2">
  <path d="M 435.925781 163.433594 L 693 163.433594 L 693 582.210938 L 435.925781 582.210938 Z M 435.925781 163.433594 "/>
</clipPath>
<clipPath id="clip3">
  <path d="M 475.25 305 L 559 305 L 559 440.339844 L 475.25 440.339844 Z M 475.25 305 "/>
</clipPath>
<clipPath id="clip4">
  <path d="M 254 306.320312 L 338.464844 306.320312 L 338.464844 442.820312 L 254 442.820312 Z M 254 306.320312 "/>
</clipPath>
<clipPath id="clip5">
  <path d="M 435.925781 277.59375 L 694 277.59375 L 694 696.84375 L 435.925781 696.84375 Z M 435.925781 277.59375 "/>
</clipPath>
<clipPath id="clip6">
  <path d="M 475.25 419.074219 L 559 419.074219 L 559 555.574219 L 475.25 555.574219 Z M 475.25 419.074219 "/>
</clipPath>
</defs>
<g id="surface1">
<g clip-path="url(#clip1)" clip-rule="nonzero">
<path style=" stroke:none;fill-rule:nonzero;fill:rgb(100%,76.469421%,5.879211%);fill-opacity:1;" d="M 134.015625 392.609375 L 310.359375 568.667969 C 319.871094 578.164062 332.984375 584.03125 347.472656 584.03125 C 370.328125 584.03125 388.804688 565.59375 388.804688 542.75 L 388.804688 437.386719 L 520.304688 568.667969 C 529.804688 578.164062 542.929688 584.03125 557.40625 584.03125 C 580.269531 584.03125 598.75 565.59375 598.75 542.75 L 598.75 205.761719 C 598.75 182.984375 580.238281 164.515625 557.40625 164.515625 L 557.078125 164.515625 C 542.597656 164.515625 529.476562 170.351562 519.964844 179.875 L 388.804688 310.820312 L 388.804688 205.761719 C 388.804688 182.984375 370.300781 164.515625 347.472656 164.515625 L 347.132812 164.515625 C 332.65625 164.515625 319.53125 170.351562 310.027344 179.875 L 134.015625 355.582031 C 123.820312 365.746094 123.820312 382.4375 134.015625 392.609375 Z M 134.015625 392.609375 "/>
</g>
<g clip-path="url(#clip2)" clip-rule="nonzero">
<path style=" stroke:none;fill-rule:nonzero;fill:rgb(21.179199%,21.179199%,21.179199%);fill-opacity:1;" d="M 685.34375 354.902344 L 509.171875 179.039062 C 499.671875 169.554688 486.566406 163.695312 472.09375 163.695312 C 449.261719 163.695312 430.804688 182.109375 430.804688 204.925781 L 430.804688 310.171875 L 299.429688 179.039062 C 289.9375 169.554688 276.828125 163.695312 262.363281 163.695312 C 239.523438 163.695312 221.0625 182.109375 221.0625 204.925781 L 221.0625 541.535156 C 221.0625 564.289062 239.554688 582.738281 262.363281 582.738281 L 262.691406 582.738281 C 277.15625 582.738281 290.269531 576.90625 299.769531 567.390625 L 430.804688 436.597656 L 430.804688 541.535156 C 430.804688 564.289062 449.285156 582.738281 472.09375 582.738281 L 472.433594 582.738281 C 486.898438 582.738281 500.007812 576.90625 509.5 567.390625 L 685.34375 391.882812 C 695.527344 381.730469 695.527344 365.058594 685.34375 354.902344 Z M 685.34375 354.902344 "/>
</g>
<g clip-path="url(#clip3)" clip-rule="nonzero">
<path style=" stroke:none;fill-rule:nonzero;fill:rgb(100%,100%,100%);fill-opacity:1;" d="M 556.054688 366.832031 L 498.878906 309.960938 C 495.796875 306.894531 491.542969 305 486.84375 305 C 479.433594 305 473.445312 310.953125 473.445312 318.332031 L 473.445312 352.367188 L 430.808594 309.960938 C 427.726562 306.894531 423.472656 305 418.777344 305 C 411.367188 305 405.375 310.953125 405.375 318.332031 L 405.375 427.1875 C 405.375 434.542969 411.375 440.507812 418.777344 440.507812 L 418.886719 440.507812 C 423.578125 440.507812 427.835938 438.625 430.917969 435.546875 L 473.445312 393.25 L 473.445312 427.1875 C 473.445312 434.542969 479.441406 440.507812 486.84375 440.507812 L 486.957031 440.507812 C 491.648438 440.507812 495.90625 438.625 498.984375 435.546875 L 556.054688 378.789062 C 559.359375 375.507812 559.359375 370.117188 556.054688 366.832031 Z M 556.054688 366.832031 "/>
</g>
<path style=" stroke:none;fill-rule:nonzero;fill:rgb(100%,100%,100%);fill-opacity:1;" d="M 496.226562 310.164062 L 496.226562 145.648438 L 473.890625 145.648438 L 473.890625 402.957031 L 496.226562 402.957031 Z M 496.226562 310.164062 "/>
<g clip-path="url(#clip4)" clip-rule="nonzero">
<path style=" stroke:none;fill-rule:nonzero;fill:rgb(100%,100%,100%);fill-opacity:1;" d="M 257.335938 380.414062 L 314.636719 437.734375 C 317.730469 440.828125 321.992188 442.738281 326.699219 442.738281 C 334.125 442.738281 340.128906 436.734375 340.128906 429.296875 L 340.128906 394.992188 L 382.859375 437.734375 C 385.945312 440.828125 390.210938 442.738281 394.914062 442.738281 C 402.34375 442.738281 408.347656 436.734375 408.347656 429.296875 L 408.347656 319.578125 C 408.347656 312.164062 402.332031 306.148438 394.914062 306.148438 L 394.808594 306.148438 C 390.101562 306.148438 385.839844 308.050781 382.746094 311.152344 L 340.128906 353.785156 L 340.128906 319.578125 C 340.128906 312.164062 334.117188 306.148438 326.699219 306.148438 L 326.585938 306.148438 C 321.882812 306.148438 317.617188 308.050781 314.53125 311.152344 L 257.335938 368.359375 C 254.023438 371.667969 254.023438 377.101562 257.335938 380.414062 Z M 257.335938 380.414062 "/>
</g>
<path style=" stroke:none;fill-rule:nonzero;fill:rgb(100%,100%,100%);fill-opacity:1;" d="M 337.347656 312.460938 L 337.347656 147.945312 L 315.011719 147.945312 L 315.011719 405.253906 L 337.347656 405.253906 Z M 337.347656 312.460938 "/>
<g clip-path="url(#clip5)" clip-rule="nonzero">
<path style=" stroke:none;fill-rule:nonzero;fill:rgb(21.179199%,21.179199%,21.179199%);fill-opacity:1;" d="M 685.800781 469.277344 L 509.457031 293.214844 C 499.945312 283.71875 486.832031 277.851562 472.34375 277.851562 C 449.488281 277.851562 431.011719 296.289062 431.011719 319.132812 L 431.011719 424.496094 L 299.511719 293.214844 C 290.007812 283.71875 276.886719 277.851562 262.40625 277.851562 C 239.542969 277.851562 221.066406 296.289062 221.066406 319.132812 L 221.066406 656.121094 C 221.066406 678.902344 239.574219 697.371094 262.40625 697.371094 L 262.738281 697.371094 C 277.214844 697.371094 290.339844 691.535156 299.851562 682.007812 L 431.011719 551.066406 L 431.011719 656.121094 C 431.011719 678.902344 449.511719 697.371094 472.34375 697.371094 L 472.683594 697.371094 C 487.160156 697.371094 500.285156 691.535156 509.789062 682.007812 L 685.800781 506.300781 C 695.996094 496.136719 695.996094 479.445312 685.800781 469.277344 Z M 685.800781 469.277344 "/>
</g>
<g clip-path="url(#clip6)" clip-rule="nonzero">
<path style=" stroke:none;fill-rule:nonzero;fill:rgb(100%,100%,100%);fill-opacity:1;" d="M 556.378906 481.480469 L 499.078125 424.160156 C 495.988281 421.066406 491.726562 419.15625 487.015625 419.15625 C 479.589844 419.15625 473.585938 425.160156 473.585938 432.597656 L 473.585938 466.902344 L 430.859375 424.160156 C 427.769531 421.066406 423.503906 419.15625 418.800781 419.15625 C 411.371094 419.15625 405.367188 425.160156 405.367188 432.597656 L 405.367188 542.316406 C 405.367188 549.730469 411.382812 555.746094 418.800781 555.746094 L 418.90625 555.746094 C 423.613281 555.746094 427.878906 553.84375 430.96875 550.742188 L 473.585938 508.109375 L 473.585938 542.316406 C 473.585938 549.730469 479.597656 555.746094 487.015625 555.746094 L 487.128906 555.746094 C 491.832031 555.746094 496.097656 553.84375 499.183594 550.742188 L 556.378906 493.535156 C 559.691406 490.226562 559.691406 484.792969 556.378906 481.480469 Z M 556.378906 481.480469 "/>
</g>
<path style=" stroke:none;fill-rule:nonzero;fill:rgb(100%,100%,100%);fill-opacity:1;" d="M 496.242188 454.179688 L 496.242188 274.800781 L 473.90625 274.800781 L 473.90625 546.96875 L 496.242188 546.96875 Z M 496.242188 454.179688 "/>
<path style=" stroke:none;fill-rule:nonzero;fill:rgb(100%,100%,100%);fill-opacity:1;" d="M 484.773438 273.050781 L 590.429688 162.65625 L 763.691406 328.480469 L 658.035156 438.875 Z M 484.773438 273.050781 "/>
<path style=" stroke:none;fill-rule:nonzero;fill:rgb(100%,100%,100%);fill-opacity:1;" d="M 486.695312 274.785156 L 486.695312 164.734375 L 600.394531 164.734375 L 600.394531 274.785156 Z M 486.695312 274.785156 "/>
<path style=" stroke:none;fill-rule:nonzero;fill:rgb(100%,76.469421%,5.879211%);fill-opacity:1;" d="M -153.710938 102.839844 L 384.003906 102.839844 L 384.003906 145.734375 L -153.710938 145.734375 Z M -153.710938 102.839844 "/>
<path style=" stroke:none;fill-rule:nonzero;fill:rgb(100%,100%,100%);fill-opacity:1;" d="M -37.082031 254.519531 L -159.859375 131.742188 L -63.796875 35.675781 L 58.980469 158.453125 Z M -37.082031 254.519531 "/>
<path style=" stroke:none;fill-rule:nonzero;fill:rgb(21.179199%,21.179199%,21.179199%);fill-opacity:1;" d="M 435.945312 102.96875 L 891.851562 102.96875 L 891.851562 145.863281 L 435.945312 145.863281 Z M 435.945312 102.96875 "/>
<path style=" stroke:none;fill-rule:nonzero;fill:rgb(100%,100%,100%);fill-opacity:1;" d="M 868.675781 248.863281 L 767.445312 147.628906 L 864.191406 50.878906 L 965.425781 152.113281 Z M 868.675781 248.863281 "/>
</g>
</svg>
