<?xml version="1.0" encoding="UTF-8"?>
<svg xmlns="http://www.w3.org/2000/svg" xmlns:xlink="http://www.w3.org/1999/xlink" width="375pt" height="374.999991pt" viewBox="0 0 375 374.999991" version="1.2">
<defs>
<clipPath id="clip1">
  <path d="M 0 0.488281 L 374.25 0.488281 L 374.25 374.738281 L 0 374.738281 Z M 0 0.488281 "/>
</clipPath>
</defs>
<g id="surface1">
<g clip-path="url(#clip1)" clip-rule="nonzero">
<path style=" stroke:none;fill-rule:nonzero;fill:rgb(100%,100%,100%);fill-opacity:1;" d="M 187.125 0.488281 C 84.207031 0.488281 0 84.691406 0 187.613281 C 0 290.53125 84.207031 374.738281 187.125 374.738281 C 290.042969 374.738281 374.25 290.53125 374.25 187.613281 C 374.25 84.691406 290.042969 0.488281 187.125 0.488281 Z M 263.042969 270.058594 C 259.523438 270.058594 257.765625 268.300781 254.246094 266.542969 C 227.84375 250.691406 194.402344 241.898438 159.207031 241.898438 C 139.839844 241.898438 118.730469 245.414062 101.121094 248.933594 C 97.605469 248.933594 94.085938 250.691406 92.328125 250.691406 C 85.292969 250.691406 80.015625 245.414062 80.015625 238.378906 C 80.015625 231.34375 83.53125 226.066406 90.570312 226.066406 C 113.453125 220.789062 136.339844 217.269531 160.984375 217.269531 C 201.457031 217.269531 238.433594 227.824219 270.113281 245.433594 C 273.632812 248.953125 277.152344 250.710938 277.152344 257.746094 C 273.59375 266.542969 268.320312 270.058594 263.042969 270.058594 Z M 282.390625 220.789062 C 278.871094 220.789062 275.355469 219.03125 271.835938 217.269531 C 241.914062 197.902344 199.664062 187.351562 153.910156 187.351562 C 131.023438 187.351562 109.898438 190.867188 94.066406 194.386719 C 90.550781 196.144531 88.789062 196.144531 85.273438 196.144531 C 76.476562 196.144531 71.183594 189.109375 71.183594 182.054688 C 71.183594 173.257812 74.699219 169.742188 83.496094 166.203125 C 104.621094 160.929688 125.746094 155.652344 155.667969 155.652344 C 204.957031 155.652344 250.710938 167.964844 289.445312 190.847656 C 294.722656 194.367188 298.238281 199.644531 298.238281 204.941406 C 296.480469 213.734375 291.203125 220.789062 282.390625 220.789062 Z M 305.277344 164.445312 C 301.757812 164.445312 300 162.6875 294.722656 160.929688 C 259.523438 141.558594 208.476562 129.246094 159.1875 129.246094 C 134.542969 129.246094 108.140625 132.765625 85.253906 138.042969 C 81.734375 138.042969 79.976562 139.800781 74.699219 139.800781 C 64.144531 141.578125 57.09375 132.765625 57.09375 122.210938 C 57.09375 111.65625 62.367188 106.363281 69.40625 104.601562 C 97.585938 97.566406 127.507812 94.050781 159.1875 94.050781 C 213.753906 94.050781 270.078125 106.363281 314.089844 129.246094 C 319.367188 132.765625 324.644531 138.042969 324.644531 146.855469 C 322.882812 157.410156 315.828125 164.445312 305.277344 164.445312 Z M 305.277344 164.445312 "/>
</g>
</g>
</svg>
