<?xml version="1.0" encoding="UTF-8"?>
<svg xmlns="http://www.w3.org/2000/svg" xmlns:xlink="http://www.w3.org/1999/xlink" width="810pt" height="809.999993pt" viewBox="0 0 810 809.999993" version="1.2">
<defs>
<clipPath id="clip1">
  <path d="M 0 0 L 792.75 0 L 792.75 792.75 L 0 792.75 Z M 0 0 "/>
</clipPath>
</defs>
<g id="surface1">
<g clip-path="url(#clip1)" clip-rule="nonzero">
<path style=" stroke:none;fill-rule:nonzero;fill:rgb(100%,100%,100%);fill-opacity:1;" d="M 396.375 0 C 178.367188 0 0 178.367188 0 396.375 C 0 614.382812 178.367188 792.75 396.375 792.75 C 614.382812 792.75 792.75 614.382812 792.75 396.375 C 792.75 178.367188 614.382812 0 396.375 0 Z M 557.183594 571.019531 C 549.734375 571.019531 546.007812 567.292969 538.554688 563.566406 C 482.625 529.992188 411.792969 511.363281 337.234375 511.363281 C 296.210938 511.363281 251.5 518.816406 214.199219 526.265625 C 206.75 526.265625 199.296875 529.992188 195.570312 529.992188 C 180.667969 529.992188 169.488281 518.816406 169.488281 503.910156 C 169.488281 489.007812 176.941406 477.828125 191.84375 477.828125 C 240.320312 466.652344 288.796875 459.199219 341 459.199219 C 426.738281 459.199219 505.0625 481.554688 572.167969 518.855469 C 579.617188 526.308594 587.070312 530.03125 587.070312 544.9375 C 579.539062 563.566406 568.363281 571.019531 557.183594 571.019531 Z M 598.167969 466.652344 C 590.71875 466.652344 583.265625 462.925781 575.8125 459.199219 C 512.433594 418.175781 422.933594 395.820312 326.019531 395.820312 C 277.542969 395.820312 232.792969 403.273438 199.257812 410.722656 C 191.804688 414.449219 188.078125 414.449219 180.628906 414.449219 C 162 414.449219 150.78125 399.546875 150.78125 384.601562 C 150.78125 365.972656 158.234375 358.519531 176.863281 351.03125 C 221.613281 339.851562 266.363281 328.675781 329.746094 328.675781 C 434.148438 328.675781 531.0625 354.753906 613.113281 403.230469 C 624.289062 410.683594 631.742188 421.863281 631.742188 433.078125 C 628.015625 451.707031 616.839844 466.652344 598.167969 466.652344 Z M 646.644531 347.304688 C 639.195312 347.304688 635.46875 343.578125 624.289062 339.851562 C 549.734375 298.828125 441.601562 272.746094 337.195312 272.746094 C 284.992188 272.746094 229.066406 280.199219 180.589844 291.375 C 173.136719 291.375 169.410156 295.101562 158.234375 295.101562 C 135.878906 298.867188 120.933594 280.199219 120.933594 257.84375 C 120.933594 235.488281 132.113281 224.269531 147.015625 220.542969 C 206.710938 205.640625 270.089844 198.1875 337.195312 198.1875 C 452.777344 198.1875 572.089844 224.269531 665.316406 272.746094 C 676.492188 280.199219 687.671875 291.375 687.671875 310.042969 C 683.945312 332.398438 669 347.304688 646.644531 347.304688 Z M 646.644531 347.304688 "/>
</g>
</g>
</svg>
