<?xml version="1.0" encoding="UTF-8"?>
<svg xmlns="http://www.w3.org/2000/svg" xmlns:xlink="http://www.w3.org/1999/xlink" width="375pt" height="374.999991pt" viewBox="0 0 375 374.999991" version="1.2">
<defs>
<clipPath id="clip1">
  <path d="M 0 37.5 L 375 37.5 L 375 337.5 L 0 337.5 Z M 0 37.5 "/>
</clipPath>
</defs>
<g id="surface1">
<g clip-path="url(#clip1)" clip-rule="nonzero">
<path style=" stroke:none;fill-rule:nonzero;fill:rgb(100%,100%,100%);fill-opacity:1;" d="M 367.164062 78.488281 C 362.851562 62.363281 350.136719 49.648438 334.011719 45.335938 C 304.761719 37.5 187.5 37.5 187.5 37.5 C 187.5 37.5 70.238281 37.5 40.988281 45.335938 C 24.863281 49.648438 12.148438 62.363281 7.835938 78.488281 C 0 107.738281 0 187.5 0 187.5 C 0 187.5 0 267.261719 7.835938 296.511719 C 12.148438 312.636719 24.863281 325.351562 40.988281 329.664062 C 70.238281 337.5 187.5 337.5 187.5 337.5 C 187.5 337.5 304.761719 337.5 334.011719 329.664062 C 350.15625 325.351562 362.851562 312.636719 367.164062 296.511719 C 375 267.261719 375 187.5 375 187.5 C 375 187.5 375 107.738281 367.164062 78.488281 Z M 150 236.210938 L 150 138.789062 C 150 131.570312 157.820312 127.070312 164.0625 130.667969 L 248.4375 179.382812 C 254.679688 182.980469 254.679688 192.019531 248.4375 195.617188 L 164.0625 244.332031 C 157.820312 247.949219 150 243.429688 150 236.210938 Z M 150 236.210938 "/>
</g>
</g>
</svg>
